<?xml version="1.0" encoding="utf-8"?>
<!-- Generator: Adobe Illustrator 24.2.0, SVG Export Plug-In . SVG Version: 6.00 Build 0)  -->
<svg version="1.1" id="Layer_1" xmlns="http://www.w3.org/2000/svg" xmlns:xlink="http://www.w3.org/1999/xlink" x="0px" y="0px"
	 viewBox="0 0 169.7 171.1" style="enable-background:new 0 0 169.7 171.1;" xml:space="preserve">
<style type="text/css">
	.st0{fill:#C37E2A;}
	.st1{fill:#EE9721;}
	.st2{fill:#215FAD;}
	.st3{fill:#FFFFFF;}
</style>
<g>
	<polygon class="st0" points="134.6,112.8 162.3,125 134.6,125 	"/>
	<polygon class="st0" points="34.8,112.8 34.8,112.8 7.1,125 34.8,125.1 	"/>
	<ellipse class="st1" cx="84.9" cy="85.6" rx="81" ry="82.1"/>
	<g>
		<ellipse class="st2" cx="84.9" cy="85.6" rx="78.5" ry="79.5"/>
	</g>
	<rect x="7.1" y="124.9" class="st1" width="155" height="33.8"/>
	<polygon class="st3" points="39.2,96.1 42.5,96.1 47.2,107.8 52.1,96.1 55.2,96.1 48.7,111.3 48.7,121 45.7,121 45.7,111.3 	"/>
	<polygon class="st3" points="59.2,96.1 71.9,96.1 71.9,98.9 62.3,98.9 62.3,106.7 71.4,106.7 71.4,109.4 62.3,109.4 62.3,118.4 
		72.4,118.4 72.4,121.1 59.2,121.1 	"/>
	<path class="st3" d="M80.6,111.7h6.6l-3.1-12h0L80.6,111.7z M82,96.1h4.1l6.6,24.9h-3.2l-1.8-6.8h-7.9l-1.8,6.8H75L82,96.1z"/>
	<path class="st3" d="M99.5,107.4h3c1.8,0,5.1,0,5.1-4.8c0-2.4-1.6-4-4.4-4h-3.6V107.4z M96.4,96.1h8c3.9,0,6.3,2.3,6.3,6.2
		c0,2.7-0.9,5.6-3.8,6.3v0c2.1,0.2,3.3,2,3.5,4.1l0.2,4.2c0.1,2.8,0.6,3.5,1.3,3.9h-3.7c-0.5-0.5-0.8-2.4-0.8-3.6l-0.2-3.9
		c-0.2-3.4-2.1-3.6-3.7-3.6h-4.1V121h-3L96.4,96.1L96.4,96.1z"/>
	<path class="st3" d="M126.8,102.6c0-2.6-0.9-4.4-3.8-4.4c-2.5,0-4.1,1.4-4.1,4.1c0,7,11.6,2.8,11.6,11.9c0,5.8-4.1,7.4-7.7,7.4
		c-5.8,0-7.4-3-7.4-8.3h3c0,2.8,0.2,5.8,4.6,5.8c2.4,0,4.2-1.8,4.2-4.4c0-7-11.6-3-11.6-12.1c0-2.3,1-6.9,7.2-6.9
		c4.7,0,6.8,2.4,6.9,6.9L126.8,102.6L126.8,102.6z"/>
	<path class="st3" d="M79.8,132.1c0,2.2,0.2,4.1,1.9,4.1c1.6,0,1.9-1.8,1.9-4.1c0-2.2-0.2-4.1-1.9-4.1C80,128,79.8,129.9,79.8,132.1
		z M84.8,132.1c0,2.4-0.4,5.1-3.1,5.1c-2.6,0-3.1-2.6-3.1-5.1c0-2.4,0.4-5.1,3.1-5.1C84.3,127.1,84.8,129.7,84.8,132.1z"/>
	<polygon class="st3" points="86.6,127.3 91.6,127.3 91.6,128.3 87.8,128.3 87.8,131.4 91.4,131.4 91.4,132.4 87.8,132.4 87.8,137 
		86.6,137 	"/>
	<path class="st3" d="M15.4,152.4c1.7,0,2-1.5,2-5.5c0-3.9-0.3-5.5-2-5.5c-1.7,0-2,1.5-2,5.5C13.3,150.9,13.6,152.4,15.4,152.4z
		 M19.1,156.2l-1.7-1.8c-0.3,0.1-0.6,0.2-0.9,0.2c-0.3,0-0.6,0.1-1,0.1c-4.4,0-5-3.2-5-7.7c0-4.5,0.5-7.7,5-7.7c4.4,0,5,3.2,5,7.7
		c0,2.5-0.2,4.6-1.1,6l1.6,1.6L19.1,156.2z"/>
	<path class="st3" d="M25.3,139.6v10.3c0,1.5,0.3,2.6,1.7,2.6c1.4,0,1.7-1.1,1.7-2.6v-10.3h3v10.3c0,3.8-2.3,4.7-4.7,4.7
		c-2.4,0-4.7-0.8-4.7-4.7v-10.3H25.3z"/>
	<path class="st3" d="M37.3,148.8h2.8l-1.4-6.6h0L37.3,148.8z M36.9,139.6h3.6l3.9,14.8h-3.1l-0.7-3.1h-3.9l-0.7,3.1H33L36.9,139.6z
		"/>
	<polygon class="st3" points="45.9,154.3 45.9,139.6 48.9,139.6 48.9,151.9 54.1,151.9 54.1,154.3 	"/>
	<rect x="56.1" y="139.6" class="st3" width="3" height="14.8"/>
	<polygon class="st3" points="70.2,139.6 70.2,142 67,142 67,154.3 64.1,154.3 64.1,142 60.9,142 60.9,139.6 	"/>
	<polygon class="st3" points="74.4,139.6 76.3,145.3 76.3,145.3 78.4,139.6 81.6,139.6 77.8,148.5 77.8,154.3 74.8,154.3 
		74.8,148.5 71,139.6 	"/>
	<path class="st3" d="M91.1,149.7v0.4c0,1.4,0.4,2.3,1.9,2.3c0.9,0,1.7-0.6,1.7-1.8c0-1.3-0.7-1.9-2.6-2.5c-2.6-0.9-3.8-2-3.8-4.5
		c0-2.9,1.7-4.4,4.5-4.4c2.6,0,4.5,1.1,4.5,4v0.4h-2.8c0-1.4-0.5-2.2-1.6-2.2c-1.3,0-1.7,0.8-1.7,1.7c0,0.9,0.3,1.5,1.5,2l2.3,1
		c2.2,1,2.8,2.1,2.8,3.9c0,3.1-1.9,4.5-5.1,4.5c-3.3,0-4.6-1.6-4.6-4.3v-0.5H91.1z"/>
	<polygon class="st3" points="108,139.6 108,142 102.8,142 102.8,145.5 107.7,145.5 107.7,147.9 102.8,147.9 102.8,151.9 
		108.2,151.9 108.2,154.3 99.9,154.3 99.9,139.6 	"/>
	<path class="st3" d="M113.1,146h1.2c1.4,0,2.2-0.6,2.2-2.2c0-1.4-0.7-2-2-2h-1.4L113.1,146L113.1,146z M110.2,139.6h5.4
		c2.4,0,3.9,1.3,3.9,3.8c0,2-0.8,3.3-2.4,3.6v0c2,0.3,2.3,1.4,2.4,4.5c0,1.6,0.1,2.4,0.6,2.7v0.1h-3.2c-0.3-0.4-0.3-1-0.4-1.6
		l-0.1-2.8c0-1.2-0.6-1.9-1.7-1.9H113v6.3h-3L110.2,139.6L110.2,139.6z"/>
	<polygon class="st3" points="124.2,139.6 126.3,150.5 126.4,150.5 128.5,139.6 131.6,139.6 128.2,154.3 124.4,154.3 121.1,139.6 	
		"/>
	<rect x="133.3" y="139.6" class="st3" width="3" height="14.8"/>
	<path class="st3" d="M145.1,144.5c0-2.2-0.4-3.1-1.7-3.1c-1.5,0-1.8,1.5-1.8,5.7c0,4.5,0.6,5.3,1.9,5.3c1.1,0,1.8-0.6,1.8-3.8h3
		c0,3.2-0.8,6-4.6,6c-4.4,0-5-3.2-5-7.7c0-4.5,0.5-7.7,5-7.7c4.2,0,4.5,3.1,4.5,5.3L145.1,144.5L145.1,144.5z"/>
	<polygon class="st3" points="158.5,139.6 158.5,142 153.3,142 153.3,145.5 158.2,145.5 158.2,147.9 153.3,147.9 153.3,151.9 
		158.8,151.9 158.8,154.3 150.4,154.3 150.4,139.6 	"/>
	<path class="st3" d="M66.8,68.8c0-8.7-1-12.6-6.3-12.6c-5.1,0-6.1,4.9-6.1,11.4c0,8.4,1.3,13.6,6.3,13.6
		C65.3,81.2,66.8,76.5,66.8,68.8z M66,37.4c0-2-0.2-3.9-1-5.3c-0.8-1.4-2.2-2.2-4.1-2.2c-5.6,0-7.1,4.4-7.1,20.1h0.2
		c2.2-4.3,6.6-6.3,12.7-6.3c10.9,0,17.1,6.1,17.1,22.1c0,14.2-4.5,26-23.3,26c-21.1,0-23.5-13.4-23.5-34.7c0-23.8,1.7-38,24.7-38
		c12.8,0,20.6,5.3,20.7,18.2L66,37.4L66,37.4z"/>
	<path class="st3" d="M109.5,81.2c5.7,0,6.5-5.4,6.5-25.6c0-20.3-0.8-25.8-6.5-25.8c-5.7,0-6.5,5.4-6.5,25.8
		C103,75.7,103.8,81.2,109.5,81.2z M109.5,91.8c-21.3,0-23.5-13.4-23.5-36.3c0.1-20.4,2.2-36.3,23.5-36.3
		c21.3,0,23.5,13.4,23.5,36.3C132.9,75.9,130.8,91.8,109.5,91.8z"/>
</g>
</svg>
