<?xml version="1.0" encoding="utf-8"?>
<!-- Generator: Adobe Illustrator 24.2.0, SVG Export Plug-In . SVG Version: 6.00 Build 0)  -->
<svg version="1.1" id="Layer_1" xmlns="http://www.w3.org/2000/svg" xmlns:xlink="http://www.w3.org/1999/xlink" x="0px" y="0px"
	 viewBox="0 0 436.2 144.4" style="enable-background:new 0 0 436.2 144.4;" xml:space="preserve">
<style type="text/css">
	.st0{fill:#FFFFFF;}
	.st1{fill:#225FAD;}
	.st2{fill:#EE9721;}
</style>
<g>
	<path class="st0" d="M400.9,3.2H35.4C17.5,3.2,3,17.7,3,35.6v105.6h397.9c17.9,0,32.4-14.5,32.4-32.4V35.6
		C433.3,17.7,418.8,3.2,400.9,3.2z"/>
	<path class="st1" d="M399.1,142.1H2V37.4C2,18,17.8,2.3,37.1,2.3h362c19.3,0,35.1,15.7,35.1,35.1v69.7
		C434.2,126.4,418.5,142.1,399.1,142.1z M3.9,140.2h395.2c18.3,0,33.2-14.9,33.2-33.2V37.4c0-18.3-14.9-33.2-33.2-33.2h-362
		C18.8,4.2,3.9,19.1,3.9,37.4V140.2z"/>
	<g>
		<g>
			<path class="st1" d="M26.7,58.5V37.2h1.1c0.4,0,0.6,0.2,0.6,0.5l0.2,3.1c0.4-0.6,0.9-1.1,1.3-1.6c0.5-0.5,1-0.9,1.5-1.3
				c0.5-0.4,1.1-0.6,1.7-0.8c0.6-0.2,1.2-0.3,1.9-0.3c1.6,0,2.8,0.5,3.7,1.4c0.9,0.9,1.6,2.2,1.9,3.8c0.3-0.9,0.6-1.7,1.1-2.3
				c0.5-0.6,1-1.2,1.6-1.6c0.6-0.4,1.3-0.7,2-0.9c0.7-0.2,1.4-0.3,2.2-0.3c1.1,0,2,0.2,2.9,0.5c0.8,0.4,1.6,0.9,2.2,1.6
				c0.6,0.7,1,1.5,1.4,2.5c0.3,1,0.5,2.1,0.5,3.4v13.7h-2V44.9c0-2.1-0.5-3.7-1.4-4.8c-0.9-1.1-2.2-1.6-3.9-1.6
				c-0.7,0-1.5,0.1-2.1,0.4c-0.7,0.3-1.3,0.7-1.8,1.2c-0.5,0.5-0.9,1.2-1.2,2c-0.3,0.8-0.5,1.7-0.5,2.8v13.7h-2V44.9
				c0-2.1-0.4-3.7-1.2-4.8c-0.8-1.1-2-1.7-3.6-1.7c-1.2,0-2.2,0.3-3.2,1c-1,0.7-1.9,1.7-2.6,2.9v16.1H26.7z"/>
			<path class="st1" d="M74.5,58.5c-0.4,0-0.7-0.2-0.8-0.6l-0.3-2.7c-0.6,0.6-1.2,1.1-1.7,1.5c-0.6,0.5-1.2,0.8-1.8,1.2
				c-0.6,0.3-1.3,0.6-2,0.7c-0.7,0.2-1.5,0.2-2.4,0.2c-0.7,0-1.4-0.1-2.1-0.3c-0.7-0.2-1.3-0.5-1.8-1c-0.5-0.4-1-1-1.3-1.7
				c-0.3-0.7-0.5-1.5-0.5-2.5c0-0.9,0.3-1.7,0.8-2.5c0.5-0.8,1.3-1.4,2.4-2c1.1-0.6,2.5-1,4.2-1.4c1.7-0.3,3.8-0.5,6.2-0.6v-2.2
				c0-2-0.4-3.5-1.3-4.6c-0.9-1.1-2.1-1.6-3.8-1.6c-1,0-1.9,0.1-2.6,0.4c-0.7,0.3-1.3,0.6-1.8,0.9c-0.5,0.3-0.9,0.7-1.2,0.9
				c-0.3,0.3-0.6,0.4-0.8,0.4c-0.3,0-0.5-0.1-0.6-0.4l-0.4-0.6c1.1-1.1,2.3-2,3.5-2.5c1.2-0.6,2.6-0.9,4.2-0.9c1.1,0,2.1,0.2,3,0.5
				c0.9,0.4,1.6,0.9,2.1,1.6c0.6,0.7,1,1.5,1.3,2.5c0.3,1,0.4,2,0.4,3.2v13.9H74.5z M65.9,57.4c0.8,0,1.6-0.1,2.3-0.3
				c0.7-0.2,1.3-0.4,1.9-0.8c0.6-0.3,1.1-0.7,1.7-1.1c0.5-0.4,1-0.9,1.5-1.4v-5.6c-2,0.1-3.8,0.2-5.2,0.5c-1.5,0.3-2.7,0.6-3.6,1
				c-1,0.4-1.7,0.9-2.1,1.5c-0.5,0.6-0.7,1.3-0.7,2c0,0.7,0.1,1.3,0.4,1.9c0.2,0.5,0.5,1,0.9,1.3c0.4,0.3,0.8,0.6,1.4,0.7
				C64.8,57.3,65.3,57.4,65.9,57.4z"/>
			<path class="st1" d="M84,27.3v19h1c0.2,0,0.4,0,0.6-0.1c0.2-0.1,0.4-0.2,0.6-0.4l8.6-8.1c0.2-0.2,0.3-0.3,0.5-0.4
				c0.2-0.1,0.4-0.2,0.6-0.2h1.8l-9.4,9c-0.1,0.1-0.3,0.3-0.4,0.4c-0.1,0.1-0.3,0.2-0.4,0.3c0.2,0.1,0.4,0.3,0.6,0.4
				c0.2,0.2,0.3,0.3,0.5,0.5l9.9,10.8h-1.8c-0.2,0-0.4,0-0.5-0.1c-0.2-0.1-0.3-0.2-0.5-0.4l-9-9.6c-0.2-0.3-0.5-0.4-0.7-0.5
				c-0.2-0.1-0.5-0.1-0.9-0.1h-1v10.8h-2V27.3H84z"/>
			<path class="st1" d="M106.4,29.8c0,0.3-0.1,0.5-0.2,0.7c-0.1,0.2-0.2,0.4-0.4,0.6c-0.2,0.2-0.4,0.3-0.6,0.4
				c-0.2,0.1-0.5,0.2-0.7,0.2c-0.3,0-0.5-0.1-0.7-0.2c-0.2-0.1-0.4-0.2-0.6-0.4c-0.2-0.2-0.3-0.4-0.4-0.6c-0.1-0.2-0.2-0.5-0.2-0.7
				s0.1-0.5,0.2-0.7c0.1-0.2,0.2-0.4,0.4-0.6s0.4-0.3,0.6-0.4c0.2-0.1,0.5-0.2,0.7-0.2c0.3,0,0.5,0.1,0.7,0.2
				c0.2,0.1,0.4,0.2,0.6,0.4c0.2,0.2,0.3,0.4,0.4,0.6S106.4,29.5,106.4,29.8z M105.5,37.2v21.4h-2V37.2H105.5z"/>
			<path class="st1" d="M113,58.5V37.2h1.1c0.4,0,0.6,0.2,0.6,0.5l0.2,3.2c1-1.2,2.1-2.2,3.4-3c1.3-0.8,2.7-1.1,4.3-1.1
				c1.2,0,2.2,0.2,3.1,0.6c0.9,0.4,1.6,0.9,2.2,1.6c0.6,0.7,1,1.5,1.3,2.5c0.3,1,0.5,2.1,0.5,3.3v13.7h-2V44.9c0-2-0.5-3.6-1.4-4.7
				c-0.9-1.1-2.3-1.7-4.2-1.7c-1.4,0-2.7,0.4-3.9,1.1c-1.2,0.7-2.3,1.7-3.2,3v16H113z"/>
			<path class="st1" d="M143.3,36.8c0.9,0,1.8,0.1,2.6,0.3c0.8,0.2,1.5,0.6,2.1,1h5.5v0.7c0,0.4-0.2,0.6-0.6,0.6l-3.2,0.2
				c0.4,0.5,0.7,1.2,0.9,1.8c0.2,0.7,0.3,1.4,0.3,2.2c0,1-0.2,2-0.6,2.8c-0.4,0.8-0.9,1.6-1.6,2.1c-0.7,0.6-1.5,1.1-2.4,1.4
				c-0.9,0.3-2,0.5-3.1,0.5c-1.2,0-2.3-0.2-3.3-0.6c-0.6,0.3-1.1,0.8-1.4,1.2s-0.5,0.9-0.5,1.4c0,0.6,0.2,1.1,0.6,1.4
				c0.4,0.3,1,0.6,1.7,0.7c0.7,0.2,1.5,0.2,2.4,0.3c0.9,0,1.8,0.1,2.8,0.1c0.9,0.1,1.9,0.1,2.8,0.3c0.9,0.1,1.7,0.4,2.4,0.7
				c0.7,0.3,1.3,0.8,1.7,1.4c0.4,0.6,0.6,1.3,0.6,2.3c0,0.9-0.2,1.7-0.7,2.6c-0.4,0.8-1.1,1.5-1.9,2.2c-0.8,0.6-1.8,1.1-3,1.5
				c-1.2,0.4-2.5,0.6-4,0.6c-1.5,0-2.8-0.2-3.9-0.5c-1.1-0.3-2.1-0.7-2.8-1.2c-0.8-0.5-1.3-1.1-1.7-1.8c-0.4-0.7-0.6-1.4-0.6-2.2
				c0-1.1,0.4-2.1,1.1-2.9c0.7-0.8,1.8-1.4,3.1-1.9c-0.7-0.2-1.3-0.6-1.7-1.1c-0.4-0.5-0.6-1.1-0.6-1.9c0-0.3,0.1-0.6,0.2-0.9
				c0.1-0.3,0.3-0.7,0.5-1c0.2-0.3,0.5-0.6,0.8-0.9c0.3-0.3,0.7-0.5,1.1-0.8c-1-0.6-1.8-1.4-2.4-2.3c-0.6-1-0.8-2.1-0.8-3.4
				c0-1,0.2-2,0.5-2.8c0.4-0.8,0.9-1.6,1.5-2.2c0.7-0.6,1.5-1.1,2.4-1.4C141.1,37,142.2,36.8,143.3,36.8z M151.2,59.9
				c0-0.7-0.2-1.2-0.5-1.6c-0.4-0.4-0.8-0.7-1.4-1c-0.6-0.2-1.3-0.4-2-0.5c-0.8-0.1-1.6-0.2-2.4-0.2c-0.8,0-1.7-0.1-2.5-0.1
				c-0.8,0-1.6-0.1-2.4-0.3c-0.5,0.2-1,0.5-1.5,0.7c-0.5,0.3-0.9,0.6-1.2,0.9c-0.3,0.4-0.6,0.7-0.8,1.2c-0.2,0.4-0.3,0.9-0.3,1.4
				c0,0.6,0.2,1.2,0.5,1.7c0.3,0.5,0.8,1,1.4,1.4c0.6,0.4,1.4,0.7,2.3,0.9c0.9,0.2,1.9,0.3,3.1,0.3c1.1,0,2.1-0.1,3-0.4
				c0.9-0.2,1.8-0.6,2.4-1c0.7-0.4,1.2-1,1.6-1.6C151,61.3,151.2,60.7,151.2,59.9z M143.3,49.1c0.9,0,1.7-0.1,2.4-0.4
				c0.7-0.3,1.3-0.6,1.8-1.1c0.5-0.5,0.9-1,1.1-1.7c0.3-0.7,0.4-1.4,0.4-2.2c0-0.8-0.1-1.5-0.4-2.2c-0.3-0.7-0.6-1.2-1.1-1.7
				s-1.1-0.8-1.8-1.1c-0.7-0.3-1.5-0.4-2.4-0.4c-0.9,0-1.7,0.1-2.4,0.4c-0.7,0.3-1.3,0.6-1.8,1.1c-0.5,0.5-0.9,1-1.1,1.7
				c-0.3,0.7-0.4,1.4-0.4,2.2c0,0.8,0.1,1.5,0.4,2.2c0.3,0.7,0.6,1.2,1.1,1.7c0.5,0.5,1.1,0.8,1.8,1.1
				C141.6,48.9,142.4,49.1,143.3,49.1z"/>
			<path class="st1" d="M166.4,58.5V27.3h2l0,13.6c0.9-1.3,2-2.3,3.3-3c1.2-0.7,2.6-1.1,4.2-1.1c2.6,0,4.7,0.9,6.1,2.7
				c1.5,1.8,2.2,4.5,2.2,8.2c0,1.6-0.2,3-0.6,4.4c-0.4,1.4-1,2.5-1.8,3.5c-0.8,1-1.8,1.8-2.9,2.4c-1.2,0.6-2.5,0.9-4,0.9
				c-1.5,0-2.8-0.3-3.8-0.9c-1.1-0.6-2-1.4-2.8-2.6l-0.1,2.6c0,0.4-0.2,0.5-0.6,0.5H166.4z M175.4,38.4c-1.4,0-2.7,0.4-3.8,1.1
				c-1.1,0.7-2.2,1.7-3.1,3v11.3c0.8,1.2,1.7,2.1,2.7,2.6c1,0.5,2.1,0.7,3.4,0.7c1.3,0,2.4-0.2,3.3-0.7c0.9-0.5,1.7-1.1,2.4-1.9
				c0.6-0.8,1.1-1.8,1.4-3c0.3-1.2,0.5-2.5,0.5-3.9c0-3.2-0.6-5.5-1.8-7C179.3,39.2,177.6,38.4,175.4,38.4z"/>
			<path class="st1" d="M197.7,36.8c1.2,0,2.3,0.2,3.3,0.6c1,0.4,1.9,1,2.7,1.8c0.8,0.8,1.3,1.8,1.8,2.9c0.4,1.2,0.6,2.5,0.6,4
				c0,0.3,0,0.5-0.1,0.6c-0.1,0.1-0.2,0.2-0.4,0.2h-15.4v0.4c0,1.6,0.2,3,0.6,4.2c0.4,1.2,0.9,2.2,1.6,3.1c0.7,0.8,1.5,1.4,2.5,1.9
				c1,0.4,2.1,0.6,3.3,0.6c1.1,0,2-0.1,2.8-0.4c0.8-0.2,1.4-0.5,2-0.8c0.5-0.3,1-0.6,1.3-0.8c0.3-0.2,0.5-0.4,0.7-0.4
				c0.2,0,0.3,0.1,0.4,0.2l0.6,0.7c-0.3,0.4-0.8,0.8-1.4,1.2c-0.6,0.4-1.2,0.7-1.9,1c-0.7,0.3-1.4,0.5-2.2,0.6
				c-0.8,0.2-1.6,0.2-2.4,0.2c-1.5,0-2.8-0.3-4-0.8c-1.2-0.5-2.2-1.2-3.1-2.2c-0.9-1-1.5-2.2-2-3.6c-0.5-1.4-0.7-3-0.7-4.8
				c0-1.5,0.2-2.9,0.7-4.2c0.4-1.3,1.1-2.4,1.9-3.3c0.8-0.9,1.8-1.7,3-2.2C194.8,37.1,196.2,36.8,197.7,36.8z M197.7,38.3
				c-1.1,0-2.1,0.2-3,0.5c-0.9,0.3-1.6,0.8-2.3,1.5c-0.6,0.6-1.1,1.4-1.5,2.3c-0.4,0.9-0.7,1.9-0.8,3h14.1c0-1.1-0.2-2.2-0.5-3.1
				c-0.3-0.9-0.8-1.7-1.3-2.3c-0.6-0.6-1.3-1.1-2.1-1.4C199.6,38.5,198.7,38.3,197.7,38.3z"/>
			<path class="st1" d="M225.2,58.5c-0.4,0-0.7-0.2-0.8-0.6l-0.3-2.7c-0.6,0.6-1.2,1.1-1.7,1.5c-0.6,0.5-1.2,0.8-1.8,1.2
				c-0.6,0.3-1.3,0.6-2,0.7c-0.7,0.2-1.5,0.2-2.4,0.2c-0.7,0-1.4-0.1-2.1-0.3c-0.7-0.2-1.3-0.5-1.8-1c-0.5-0.4-1-1-1.3-1.7
				c-0.3-0.7-0.5-1.5-0.5-2.5c0-0.9,0.3-1.7,0.8-2.5c0.5-0.8,1.3-1.4,2.4-2c1.1-0.6,2.5-1,4.2-1.4c1.7-0.3,3.8-0.5,6.2-0.6v-2.2
				c0-2-0.4-3.5-1.3-4.6c-0.9-1.1-2.1-1.6-3.8-1.6c-1,0-1.9,0.1-2.6,0.4c-0.7,0.3-1.3,0.6-1.8,0.9c-0.5,0.3-0.9,0.7-1.2,0.9
				c-0.3,0.3-0.6,0.4-0.8,0.4c-0.3,0-0.5-0.1-0.6-0.4l-0.4-0.6c1.1-1.1,2.3-2,3.5-2.5c1.2-0.6,2.6-0.9,4.2-0.9c1.1,0,2.1,0.2,3,0.5
				c0.9,0.4,1.6,0.9,2.1,1.6c0.6,0.7,1,1.5,1.3,2.5c0.3,1,0.4,2,0.4,3.2v13.9H225.2z M216.6,57.4c0.8,0,1.6-0.1,2.3-0.3
				c0.7-0.2,1.3-0.4,1.9-0.8c0.6-0.3,1.1-0.7,1.7-1.1c0.5-0.4,1-0.9,1.5-1.4v-5.6c-2,0.1-3.8,0.2-5.2,0.5c-1.5,0.3-2.7,0.6-3.6,1
				c-1,0.4-1.7,0.9-2.1,1.5c-0.5,0.6-0.7,1.3-0.7,2c0,0.7,0.1,1.3,0.4,1.9c0.2,0.5,0.5,1,0.9,1.3c0.4,0.3,0.8,0.6,1.4,0.7
				C215.5,57.3,216.1,57.4,216.6,57.4z"/>
			<path class="st1" d="M234,37.2v13.7c0,2,0.5,3.6,1.4,4.7c0.9,1.1,2.3,1.7,4.2,1.7c1.4,0,2.7-0.4,3.9-1.1c1.2-0.7,2.3-1.7,3.3-3
				V37.2h2v21.4h-1.1c-0.4,0-0.6-0.2-0.6-0.6l-0.2-3.2c-1,1.2-2.1,2.2-3.4,3c-1.3,0.7-2.7,1.1-4.3,1.1c-1.2,0-2.2-0.2-3.1-0.6
				c-0.9-0.4-1.6-0.9-2.2-1.6c-0.6-0.7-1-1.5-1.3-2.5c-0.3-1-0.5-2.1-0.5-3.3V37.2H234z"/>
			<path class="st1" d="M261.5,58.9c-1.4,0-2.6-0.4-3.4-1.2c-0.8-0.8-1.2-2-1.2-3.7V39.3h-3.1c-0.2,0-0.3,0-0.4-0.1
				c-0.1-0.1-0.2-0.2-0.2-0.4v-0.8l3.6-0.3l0.5-7.6c0-0.1,0.1-0.2,0.2-0.3c0.1-0.1,0.2-0.2,0.4-0.2h1v8.2h6.7v1.5H259v14.5
				c0,0.6,0.1,1.1,0.2,1.5c0.2,0.4,0.4,0.8,0.6,1c0.3,0.3,0.6,0.5,0.9,0.6c0.4,0.1,0.7,0.2,1.2,0.2c0.5,0,1-0.1,1.3-0.2
				c0.4-0.2,0.7-0.3,1-0.5c0.3-0.2,0.5-0.3,0.7-0.5c0.2-0.2,0.3-0.2,0.4-0.2c0.1,0,0.2,0.1,0.3,0.2l0.6,0.9
				c-0.5,0.6-1.2,1.1-2.1,1.4C263.3,58.7,262.4,58.9,261.5,58.9z"/>
			<path class="st1" d="M274.5,29.8c0,0.3-0.1,0.5-0.2,0.7c-0.1,0.2-0.2,0.4-0.4,0.6c-0.2,0.2-0.4,0.3-0.6,0.4
				c-0.2,0.1-0.5,0.2-0.7,0.2s-0.5-0.1-0.7-0.2c-0.2-0.1-0.4-0.2-0.6-0.4c-0.2-0.2-0.3-0.4-0.4-0.6c-0.1-0.2-0.1-0.5-0.1-0.7
				s0-0.5,0.1-0.7s0.2-0.4,0.4-0.6c0.2-0.2,0.4-0.3,0.6-0.4c0.2-0.1,0.5-0.2,0.7-0.2s0.5,0.1,0.7,0.2c0.2,0.1,0.4,0.2,0.6,0.4
				s0.3,0.4,0.4,0.6C274.5,29.3,274.5,29.5,274.5,29.8z M273.6,37.2v21.4h-2V37.2H273.6z"/>
			<path class="st1" d="M282,58.5V39.4l-3-0.2c-0.4,0-0.6-0.2-0.6-0.5v-0.8h3.6v-2.7c0-1.2,0.2-2.3,0.5-3.2c0.3-0.9,0.8-1.7,1.3-2.3
				c0.6-0.6,1.3-1.1,2.1-1.4c0.8-0.3,1.7-0.5,2.7-0.5c0.4,0,0.9,0,1.3,0.1c0.5,0.1,0.8,0.2,1.2,0.3l-0.1,1c0,0.2-0.2,0.3-0.4,0.3
				c-0.2,0-0.4,0-0.7-0.1c-0.3,0-0.7-0.1-1.1-0.1c-0.7,0-1.3,0.1-1.9,0.3c-0.6,0.2-1.1,0.5-1.5,1c-0.4,0.5-0.8,1.1-1,1.8
				c-0.2,0.7-0.4,1.6-0.4,2.7v2.6h6.9v1.5H284v19.2H282z"/>
			<path class="st1" d="M296.5,37.2v13.7c0,2,0.5,3.6,1.4,4.7c0.9,1.1,2.3,1.7,4.2,1.7c1.4,0,2.7-0.4,3.9-1.1c1.2-0.7,2.3-1.7,3.3-3
				V37.2h2v21.4h-1.1c-0.4,0-0.6-0.2-0.6-0.6l-0.2-3.2c-1,1.2-2.1,2.2-3.4,3c-1.3,0.7-2.7,1.1-4.3,1.1c-1.2,0-2.2-0.2-3.1-0.6
				c-0.9-0.4-1.6-0.9-2.2-1.6c-0.6-0.7-1-1.5-1.3-2.5c-0.3-1-0.5-2.1-0.5-3.3V37.2H296.5z"/>
			<path class="st1" d="M320.9,27.3v31.2h-2V27.3H320.9z"/>
			<path class="st1" d="M336.7,58.5V37.2h1.1c0.4,0,0.6,0.2,0.6,0.5l0.2,3.2c1-1.2,2.1-2.2,3.4-3c1.3-0.8,2.7-1.1,4.3-1.1
				c1.2,0,2.2,0.2,3.1,0.6c0.9,0.4,1.6,0.9,2.2,1.6c0.6,0.7,1,1.5,1.3,2.5c0.3,1,0.5,2.1,0.5,3.3v13.7h-2V44.9c0-2-0.5-3.6-1.4-4.7
				c-0.9-1.1-2.3-1.7-4.2-1.7c-1.4,0-2.7,0.4-3.9,1.1c-1.2,0.7-2.3,1.7-3.2,3v16H336.7z"/>
			<path class="st1" d="M368,36.8c1.2,0,2.3,0.2,3.3,0.6c1,0.4,1.9,1,2.7,1.8c0.8,0.8,1.3,1.8,1.8,2.9c0.4,1.2,0.6,2.5,0.6,4
				c0,0.3,0,0.5-0.1,0.6c-0.1,0.1-0.2,0.2-0.4,0.2h-15.4v0.4c0,1.6,0.2,3,0.6,4.2c0.4,1.2,0.9,2.2,1.6,3.1c0.7,0.8,1.5,1.4,2.5,1.9
				c1,0.4,2.1,0.6,3.3,0.6c1.1,0,2-0.1,2.8-0.4c0.8-0.2,1.4-0.5,2-0.8c0.5-0.3,1-0.6,1.3-0.8c0.3-0.2,0.5-0.4,0.7-0.4
				c0.2,0,0.3,0.1,0.4,0.2l0.6,0.7c-0.3,0.4-0.8,0.8-1.4,1.2c-0.6,0.4-1.2,0.7-1.9,1c-0.7,0.3-1.4,0.5-2.2,0.6
				c-0.8,0.2-1.6,0.2-2.4,0.2c-1.5,0-2.8-0.3-4-0.8c-1.2-0.5-2.2-1.2-3.1-2.2c-0.9-1-1.5-2.2-2-3.6c-0.5-1.4-0.7-3-0.7-4.8
				c0-1.5,0.2-2.9,0.7-4.2c0.4-1.3,1.1-2.4,1.9-3.3c0.8-0.9,1.8-1.7,3-2.2C365.1,37.1,366.5,36.8,368,36.8z M368,38.3
				c-1.1,0-2.1,0.2-3,0.5c-0.9,0.3-1.6,0.8-2.3,1.5s-1.2,1.4-1.5,2.3c-0.4,0.9-0.7,1.9-0.8,3h14.1c0-1.1-0.2-2.2-0.5-3.1
				c-0.3-0.9-0.8-1.7-1.3-2.3c-0.6-0.6-1.3-1.1-2.1-1.4C369.9,38.5,369,38.3,368,38.3z"/>
			<path class="st1" d="M378.9,37.2h1.6c0.2,0,0.4,0.1,0.5,0.2c0.1,0.1,0.2,0.2,0.3,0.4l5.4,16.8c0.1,0.3,0.2,0.6,0.2,0.9
				c0.1,0.3,0.1,0.6,0.2,0.9c0.1-0.3,0.2-0.6,0.2-0.9c0.1-0.3,0.2-0.6,0.3-0.9l5.7-17c0.1-0.3,0.3-0.5,0.6-0.5h0.8
				c0.3,0,0.5,0.2,0.6,0.5l5.6,17c0.2,0.6,0.4,1.3,0.5,1.9c0.1-0.3,0.1-0.6,0.2-0.9c0.1-0.3,0.2-0.6,0.3-1l5.4-16.8
				c0.1-0.3,0.4-0.5,0.7-0.5h1.5l-7.1,21.4h-1.5c-0.2,0-0.4-0.2-0.5-0.5l-5.9-17.3c-0.1-0.2-0.1-0.4-0.2-0.6
				c-0.1-0.2-0.1-0.4-0.2-0.6c0,0.2-0.1,0.4-0.1,0.6c-0.1,0.2-0.1,0.4-0.2,0.6L388,58.1c-0.1,0.3-0.3,0.5-0.5,0.5H386L378.9,37.2z"
				/>
		</g>
		<g>
			<path class="st2" d="M52.9,74.1v4.7H32.5v14.9h17.5v4.7H32.5v18.3h-5.8V74.1H52.9z"/>
			<path class="st2" d="M66.1,111.8h18.4v4.8H60.3V74.1h5.8V111.8z"/>
			<path class="st2" d="M128,95.4c0,3.2-0.5,6.1-1.5,8.8c-1,2.7-2.4,5-4.3,6.9c-1.8,1.9-4.1,3.4-6.6,4.5c-2.6,1.1-5.4,1.6-8.6,1.6
				c-3.1,0-6-0.5-8.6-1.6c-2.6-1.1-4.8-2.5-6.6-4.5c-1.8-1.9-3.3-4.2-4.3-6.9c-1-2.7-1.5-5.6-1.5-8.8c0-3.2,0.5-6.1,1.5-8.8
				c1-2.7,2.4-5,4.3-6.9c1.8-1.9,4-3.4,6.6-4.5c2.6-1.1,5.4-1.6,8.6-1.6c3.1,0,6,0.5,8.6,1.6c2.6,1.1,4.8,2.6,6.6,4.5
				c1.8,1.9,3.3,4.2,4.3,6.9C127.5,89.3,128,92.2,128,95.4z M122.1,95.4c0-2.6-0.4-5-1.1-7c-0.7-2.1-1.7-3.8-3-5.3
				c-1.3-1.4-2.9-2.5-4.8-3.3c-1.9-0.8-3.9-1.2-6.2-1.2c-2.3,0-4.3,0.4-6.2,1.2c-1.9,0.8-3.4,1.9-4.8,3.3c-1.3,1.4-2.3,3.2-3,5.3
				c-0.7,2.1-1.1,4.4-1.1,7c0,2.6,0.4,5,1.1,7c0.7,2.1,1.7,3.8,3,5.3c1.3,1.4,2.9,2.5,4.8,3.3c1.9,0.8,3.9,1.1,6.2,1.1
				c2.3,0,4.4-0.4,6.2-1.1c1.9-0.8,3.4-1.9,4.8-3.3c1.3-1.4,2.3-3.2,3-5.3C121.7,100.4,122.1,98,122.1,95.4z"/>
			<path class="st2" d="M175.4,95.4c0,3.2-0.5,6.1-1.5,8.8c-1,2.7-2.4,5-4.3,6.9c-1.8,1.9-4.1,3.4-6.6,4.5c-2.6,1.1-5.4,1.6-8.6,1.6
				c-3.1,0-6-0.5-8.6-1.6c-2.6-1.1-4.8-2.5-6.6-4.5c-1.8-1.9-3.3-4.2-4.3-6.9c-1-2.7-1.5-5.6-1.5-8.8c0-3.2,0.5-6.1,1.5-8.8
				c1-2.7,2.4-5,4.3-6.9c1.8-1.9,4-3.4,6.6-4.5c2.6-1.1,5.4-1.6,8.6-1.6c3.1,0,6,0.5,8.6,1.6c2.6,1.1,4.8,2.6,6.6,4.5
				c1.8,1.9,3.3,4.2,4.3,6.9C174.9,89.3,175.4,92.2,175.4,95.4z M169.5,95.4c0-2.6-0.4-5-1.1-7c-0.7-2.1-1.7-3.8-3-5.3
				c-1.3-1.4-2.9-2.5-4.8-3.3c-1.9-0.8-3.9-1.2-6.2-1.2c-2.3,0-4.3,0.4-6.2,1.2c-1.9,0.8-3.4,1.9-4.8,3.3c-1.3,1.4-2.3,3.2-3,5.3
				c-0.7,2.1-1.1,4.4-1.1,7c0,2.6,0.4,5,1.1,7c0.7,2.1,1.7,3.8,3,5.3c1.3,1.4,2.9,2.5,4.8,3.3c1.9,0.8,3.9,1.1,6.2,1.1
				c2.3,0,4.4-0.4,6.2-1.1c1.9-0.8,3.4-1.9,4.8-3.3c1.3-1.4,2.3-3.2,3-5.3C169.1,100.4,169.5,98,169.5,95.4z"/>
			<path class="st2" d="M189.6,98.9v17.8h-5.7V74.1h12c2.7,0,5,0.3,7,0.8c2,0.5,3.6,1.3,4.9,2.4c1.3,1,2.2,2.3,2.8,3.7
				c0.6,1.5,0.9,3.1,0.9,4.9c0,1.5-0.2,2.9-0.7,4.2c-0.5,1.3-1.2,2.5-2.1,3.5c-0.9,1-2,1.9-3.3,2.7c-1.3,0.7-2.8,1.3-4.4,1.7
				c0.7,0.4,1.3,1,1.9,1.8l12.4,16.9h-5.1c-1,0-1.8-0.4-2.3-1.2l-11-15.2c-0.3-0.5-0.7-0.8-1.1-1c-0.4-0.2-1-0.3-1.8-0.3H189.6z
				 M189.6,94.7h6c1.7,0,3.2-0.2,4.4-0.6c1.3-0.4,2.3-1,3.2-1.7s1.5-1.6,1.9-2.7c0.4-1,0.7-2.2,0.7-3.4c0-2.5-0.8-4.4-2.5-5.7
				c-1.7-1.3-4.2-1.9-7.5-1.9h-6.3V94.7z"/>
			<path class="st2" d="M243.3,80.8c-0.2,0.3-0.4,0.5-0.6,0.7c-0.2,0.1-0.5,0.2-0.8,0.2c-0.3,0-0.7-0.2-1.2-0.5
				c-0.4-0.3-1-0.7-1.7-1.1c-0.7-0.4-1.5-0.8-2.5-1.1c-1-0.3-2.1-0.5-3.5-0.5c-1.3,0-2.4,0.2-3.4,0.5c-1,0.3-1.8,0.8-2.5,1.4
				c-0.7,0.6-1.2,1.3-1.5,2.1c-0.3,0.8-0.5,1.7-0.5,2.6c0,1.2,0.3,2.2,0.9,3c0.6,0.8,1.4,1.5,2.3,2c1,0.6,2,1,3.3,1.4
				c1.2,0.4,2.5,0.8,3.7,1.3c1.3,0.4,2.5,0.9,3.7,1.5c1.2,0.5,2.3,1.2,3.3,2.1c1,0.8,1.7,1.9,2.3,3.1c0.6,1.2,0.9,2.7,0.9,4.5
				c0,1.9-0.3,3.6-1,5.2c-0.6,1.6-1.6,3.1-2.8,4.3c-1.2,1.2-2.7,2.2-4.5,2.9c-1.8,0.7-3.8,1-6,1c-2.8,0-5.3-0.5-7.5-1.5
				c-2.3-1-4.2-2.4-5.8-4.1l1.7-2.7c0.2-0.2,0.4-0.4,0.6-0.5c0.2-0.1,0.5-0.2,0.8-0.2c0.4,0,0.9,0.2,1.4,0.7c0.5,0.4,1.2,0.9,2,1.5
				s1.8,1,2.9,1.5c1.1,0.4,2.5,0.7,4.2,0.7c1.4,0,2.6-0.2,3.7-0.6c1.1-0.4,2-0.9,2.7-1.6c0.7-0.7,1.3-1.5,1.7-2.4
				c0.4-1,0.6-2,0.6-3.2c0-1.3-0.3-2.3-0.9-3.2c-0.6-0.8-1.4-1.5-2.3-2.1c-1-0.6-2-1-3.3-1.4c-1.2-0.4-2.5-0.8-3.7-1.2
				c-1.3-0.4-2.5-0.9-3.7-1.4c-1.2-0.5-2.3-1.2-3.3-2.1c-1-0.9-1.7-1.9-2.3-3.2c-0.6-1.3-0.9-2.9-0.9-4.7c0-1.5,0.3-3,0.9-4.4
				c0.6-1.4,1.4-2.7,2.5-3.7c1.1-1.1,2.5-2,4.1-2.6c1.6-0.7,3.5-1,5.6-1c2.4,0,4.5,0.4,6.5,1.1c2,0.8,3.7,1.8,5.1,3.3L243.3,80.8z"
				/>
			<path class="st2" d="M290.7,73.4v7.7h-17.8v10.1h13.6v7.4h-13.6v10.3h17.8v7.7h-27.9V73.4H290.7z"/>
			<path class="st2" d="M336.6,116.7h-7.8c-0.9,0-1.6-0.2-2.2-0.6c-0.6-0.4-1-0.9-1.2-1.6L323,107h-16.5l-2.6,7.5
				c-0.2,0.6-0.6,1.1-1.2,1.5c-0.6,0.4-1.3,0.7-2.1,0.7h-7.8l16.7-43.3h10.3L336.6,116.7z M308.8,100.1h11.8l-4-11.8
				c-0.3-0.8-0.6-1.6-0.9-2.7c-0.3-1-0.7-2.1-1-3.3c-0.3,1.2-0.6,2.3-1,3.4c-0.3,1-0.7,1.9-1,2.7L308.8,100.1z"/>
			<path class="st2" d="M364.2,82.2c-0.3,0.5-0.6,0.8-0.9,1.1c-0.3,0.2-0.7,0.4-1.3,0.4c-0.5,0-0.9-0.1-1.5-0.4
				c-0.5-0.3-1.1-0.6-1.8-1c-0.7-0.4-1.4-0.7-2.3-1c-0.9-0.3-1.8-0.4-2.9-0.4c-1.9,0-3.3,0.4-4.2,1.2c-0.9,0.8-1.4,1.9-1.4,3.3
				c0,0.9,0.3,1.6,0.8,2.2c0.6,0.6,1.3,1.1,2.2,1.5c0.9,0.4,1.9,0.8,3.1,1.1c1.2,0.3,2.3,0.7,3.5,1.2c1.2,0.4,2.4,0.9,3.5,1.5
				c1.2,0.6,2.2,1.3,3.1,2.2c0.9,0.9,1.6,2,2.2,3.3c0.6,1.3,0.8,2.8,0.8,4.6c0,2-0.3,3.9-1,5.6c-0.7,1.7-1.7,3.3-3,4.6
				c-1.3,1.3-2.9,2.3-4.9,3.1c-1.9,0.7-4.1,1.1-6.6,1.1c-1.3,0-2.7-0.1-4.1-0.4c-1.4-0.3-2.7-0.7-4.1-1.2c-1.3-0.5-2.5-1.1-3.7-1.8
				c-1.1-0.7-2.1-1.5-3-2.3l3-4.7c0.2-0.4,0.5-0.6,0.9-0.9c0.4-0.2,0.8-0.3,1.3-0.3c0.6,0,1.2,0.2,1.8,0.6c0.6,0.4,1.3,0.8,2,1.2
				c0.8,0.5,1.6,0.9,2.6,1.2c1,0.4,2.2,0.6,3.5,0.6c1.8,0,3.2-0.4,4.2-1.2c1-0.8,1.5-2.1,1.5-3.8c0-1-0.3-1.8-0.8-2.5
				c-0.6-0.6-1.3-1.2-2.2-1.6c-0.9-0.4-1.9-0.8-3.1-1.1c-1.1-0.3-2.3-0.7-3.5-1.1c-1.2-0.4-2.4-0.9-3.5-1.4
				c-1.1-0.6-2.2-1.3-3.1-2.2c-0.9-0.9-1.6-2.1-2.2-3.4c-0.6-1.4-0.8-3.1-0.8-5.1c0-1.6,0.3-3.2,1-4.8c0.7-1.5,1.6-2.9,2.9-4.1
				c1.3-1.2,2.8-2.2,4.7-2.9c1.8-0.7,3.9-1.1,6.3-1.1c1.3,0,2.6,0.1,3.9,0.3c1.3,0.2,2.4,0.5,3.6,0.9c1.1,0.4,2.2,0.9,3.2,1.5
				c1,0.6,1.9,1.2,2.6,1.9L364.2,82.2z"/>
			<path class="st2" d="M393.9,100.2v16.5h-10v-16.5l-15.7-26.8h8.8c0.9,0,1.6,0.2,2.1,0.6c0.5,0.4,0.9,0.9,1.2,1.6l6.1,12.6
				c0.5,1,1,1.9,1.4,2.8c0.4,0.9,0.8,1.7,1.1,2.5c0.3-0.9,0.7-1.7,1.1-2.6c0.4-0.9,0.9-1.8,1.3-2.8l6.1-12.6
				c0.1-0.3,0.3-0.5,0.5-0.8c0.2-0.3,0.4-0.5,0.7-0.7c0.3-0.2,0.6-0.4,0.9-0.5c0.3-0.1,0.7-0.2,1.1-0.2h8.9L393.9,100.2z"/>
		</g>
	</g>
</g>
</svg>
