<?xml version="1.0" encoding="utf-8"?>
<!-- Generator: Adobe Illustrator 24.2.0, SVG Export Plug-In . SVG Version: 6.00 Build 0)  -->
<svg version="1.1" id="Layer_1" xmlns="http://www.w3.org/2000/svg" xmlns:xlink="http://www.w3.org/1999/xlink" x="0px" y="0px"
	 viewBox="0 0 292.9 132.7" style="enable-background:new 0 0 292.9 132.7;" xml:space="preserve">
<style type="text/css">
	.st0{fill:#EE9721;}
	.st1{fill:#215FAD;}
	.st2{fill:#FFFFFF;}
</style>
<g>
	<g>
		<path class="st0" d="M17.7,110.1c0-2.4-0.9-4.1-3.6-4.1c-2.4,0-3.8,1.3-3.8,3.7c0,6.4,10.8,2.6,10.8,10.9c0,5.3-3.9,6.8-7.1,6.8
			c-5.3,0-6.9-2.7-6.9-7.6h2.8c0,2.6,0.2,5.3,4.3,5.3c2.2,0,4-1.6,4-4c0-6.5-10.8-2.7-10.8-11.1c0-2.1,0.9-6.3,6.7-6.3
			c4.3,0,6.3,2.2,6.4,6.4H17.7z"/>
		<path class="st0" d="M28.4,104.2h3.8l6.1,22.8h-2.9l-1.6-6.3h-7.3l-1.7,6.3h-2.9L28.4,104.2z M27,118.5h6.1l-2.9-11h-0.1L27,118.5
			z"/>
		<polygon class="st0" points="45.1,127 42.3,127 42.3,106.7 36.6,106.7 36.6,104.2 50.9,104.2 50.9,106.7 45.1,106.7 		"/>
		<rect x="53" y="104.2" class="st0" width="2.8" height="22.8"/>
		<path class="st0" d="M69.2,110.1c0-2.4-0.9-4.1-3.6-4.1c-2.4,0-3.8,1.3-3.8,3.7c0,6.4,10.8,2.6,10.8,10.9c0,5.3-3.9,6.8-7.1,6.8
			c-5.3,0-6.9-2.7-6.9-7.6h2.8c0,2.6,0.2,5.3,4.3,5.3c2.3,0,4-1.6,4-4c0-6.5-10.8-2.7-10.8-11.1c0-2.1,0.9-6.3,6.7-6.3
			c4.3,0,6.3,2.2,6.4,6.4H69.2z"/>
		<polygon class="st0" points="75.5,104.2 87.3,104.2 87.3,106.7 78.3,106.7 78.3,113.9 86.7,113.9 86.7,116.4 78.3,116.4 78.3,127 
			75.5,127 		"/>
		<rect x="89.7" y="104.2" class="st0" width="2.8" height="22.8"/>
		<polygon class="st0" points="96.2,104.2 108,104.2 108,106.7 99,106.7 99,113.9 107.5,113.9 107.5,116.4 99,116.4 99,124.6 
			108.4,124.6 108.4,127 96.2,127 		"/>
		<path class="st0" d="M111.3,104.2h6.1c7.1,0,8,5.1,8,11.4c0,5.8-1.4,11.4-7.7,11.4h-6.4V104.2z M114.1,124.7h2.9
			c4.9,0,5.4-5,5.4-9.1c0-4.4-0.3-9.1-5.4-9.1h-2.9V124.7z"/>
		<path class="st0" d="M153.8,119.1c-0.3,4.3-1.9,8.2-6.9,8.2c-6.4,0-7.3-6-7.3-11.7c0-5.7,1-11.7,7.3-11.7c4.6,0,6.6,2.6,6.7,7
			h-2.9c-0.1-2.6-0.9-4.7-3.8-4.7c-3.8,0-4.4,4.2-4.4,9.5c0,5.2,0.5,9.4,4.4,9.4c3.4,0,3.9-3.2,4-5.9H153.8z"/>
		<path class="st0" d="M156.1,104.3h2.8v15.9c0,3.3,1.1,4.9,3.8,4.9c3,0,3.9-1.7,3.9-4.9v-15.9h2.8v15.9c0,4.3-2.2,7.1-6.6,7.1
			c-4.5,0-6.6-2.5-6.6-7.1V104.3z"/>
		<path class="st0" d="M182.3,110.2c0-2.4-0.9-4-3.5-4c-2.3,0-3.7,1.3-3.7,3.7c0,6.3,10.7,2.6,10.7,10.8c0,5.2-3.8,6.7-7,6.7
			c-5.3,0-6.8-2.7-6.8-7.5h2.8c0,2.6,0.2,5.3,4.2,5.3c2.2,0,3.9-1.6,3.9-4c0-6.4-10.6-2.7-10.6-11c0-2.1,0.9-6.2,6.6-6.2
			c4.3,0,6.3,2.1,6.3,6.3H182.3z"/>
		<polygon class="st0" points="195.4,126.9 192.6,126.9 192.6,106.8 187,106.8 187,104.3 201.1,104.3 201.1,106.8 195.4,106.8 		"/>
		<path class="st0" d="M217.4,115.6c0,5.7-1,11.7-7.3,11.7c-6.2,0-7.3-6-7.3-11.7c0-5.7,1.1-11.7,7.3-11.7
			C216.4,103.9,217.4,109.9,217.4,115.6 M205.8,115.6c0,5.2,0.5,9.4,4.4,9.4c3.9,0,4.4-4.2,4.4-9.4c0-5.2-0.5-9.5-4.4-9.5
			C206.3,106.2,205.8,110.4,205.8,115.6"/>
		<polygon class="st0" points="220.8,104.3 225.5,104.3 230,122.2 230.1,122.2 234.6,104.3 239.3,104.3 239.3,126.9 236.5,126.9 
			236.5,107.2 236.4,107.2 231.4,126.9 228.7,126.9 223.7,107.2 223.6,107.2 223.6,126.9 220.8,126.9 		"/>
		<polygon class="st0" points="243,104.3 254.7,104.3 254.7,106.8 245.8,106.8 245.8,113.9 254.2,113.9 254.2,116.3 245.8,116.3 
			245.8,124.4 255.1,124.4 255.1,126.9 243,126.9 		"/>
		<path class="st0" d="M257.6,104.3h7.3c3.5,0,5.8,2.1,5.8,5.7c0,2.5-0.8,5.1-3.5,5.7v0c2,0.2,3.1,1.8,3.2,3.8l0.2,3.9
			c0.1,2.5,0.5,3.1,1.2,3.5h-3.4c-0.5-0.5-0.7-2.1-0.8-3.2l-0.2-3.5c-0.2-3.1-1.9-3.3-3.3-3.3h-3.8v10.1h-2.8V104.3z M260.4,114.6
			h2.7c1.7,0,4.7,0,4.7-4.4c0-2.2-1.5-3.6-4.1-3.6h-3.3V114.6z"/>
		<path class="st0" d="M283.6,110.2c0-2.4-0.9-4-3.5-4c-2.3,0-3.7,1.3-3.7,3.7c0,6.3,10.7,2.6,10.7,10.8c0,5.2-3.8,6.7-7,6.7
			c-5.3,0-6.8-2.7-6.8-7.5h2.8c0,2.6,0.2,5.3,4.2,5.3c2.2,0,3.9-1.6,3.9-4c0-6.4-10.7-2.7-10.7-11c0-2.1,0.9-6.2,6.6-6.2
			c4.3,0,6.3,2.1,6.3,6.3H283.6z"/>
	</g>
	<g>
		<polygon class="st1" points="51.1,18 41.6,48.7 54.8,68.1 51.6,91.8 287.1,91.8 287.1,18 		"/>
	</g>
	<polygon class="st2" points="78.7,43.1 91,43.1 96.8,71.9 96.9,71.9 102.8,43.1 115,43.1 115,83.9 107.4,83.9 107.4,51.4 
		107.3,51.4 100,83.9 93.6,83.9 86.4,51.4 86.3,51.4 86.3,83.9 78.7,83.9 	"/>
	<rect x="122.7" y="43.1" class="st2" width="8.2" height="40.8"/>
	<polygon class="st2" points="138.4,83.9 138.4,43.1 146.6,43.1 146.6,77.2 161.2,77.2 161.2,83.9 	"/>
	<polygon class="st2" points="166.3,83.9 166.3,43.1 174.5,43.1 174.5,77.2 189.1,77.2 189.1,83.9 	"/>
	<rect x="194.6" y="43.1" class="st2" width="8.2" height="40.8"/>
	<path class="st2" d="M223.3,42.3c12.3,0,13.9,8.8,13.9,21.2c0,12.4-1.5,21.2-13.9,21.2c-12.4,0-13.9-8.8-13.9-21.2
		C209.5,51.1,211,42.3,223.3,42.3 M223.3,78.7c4.9,0,5.6-4.2,5.6-15.1c0-10.9-0.8-15.1-5.6-15.1c-4.9,0-5.7,4.2-5.7,15.1
		C217.7,74.5,218.5,78.7,223.3,78.7"/>
	<polygon class="st2" points="253,43.1 262.9,71.1 263,71.1 263,43.1 270.6,43.1 270.6,83.9 261.2,83.9 251.2,55.4 251,55.4 
		251,83.9 243.5,83.9 243.5,43.1 	"/>
	<g>
		<rect x="225.9" y="27.8" class="st2" width="13.4" height="2"/>
	</g>
	<g>
		<rect x="111.6" y="27.8" class="st2" width="13.4" height="2"/>
	</g>
	<g>
		<g>
			<g>
				<path class="st2" d="M24.4,69.1c0.3,10.3,2,15.9,9.9,15.9c8.8,0,9.9-6.5,9.9-14.3c0-7.9-1.8-15.1-11.6-15.1h-6V43.9h5.9
					c7.5,0,10.3-6.8,10.3-14c0-8.3-2.8-11.6-8.6-11.6c-7.8,0-9.1,6-9.1,14.4H8.4c0-17.4,9.3-26.1,26-26.1c16,0,25.5,7.1,25.5,22.8
					c0,10.6-5.1,17.6-13.5,19.5V49c11.4,1.8,15.8,9.8,15.8,20.9c0,11.9-4.9,26.9-29.4,26.9c-17.1,0-25.6-10.4-25.6-27.3v-0.4H24.4z"
					/>
			</g>
		</g>
		<g>
			<g>
				<g>
					<path class="st1" d="M32.7,98c-8.7,0-15.5-2.6-20.2-7.7c-4.5-4.9-6.7-11.9-6.7-20.8v-1.6h19.8l0,1.2
						c0.3,11.1,2.4,14.6,8.6,14.6c7.2,0,8.6-4.8,8.6-13c0-9.8-3-13.9-10.4-13.9h-7.3V42.6h7.2c8.1,0,9-8.9,9-12.7
						c0-9.1-3.5-10.4-7.4-10.4c-5.8,0-7.9,3.4-7.9,13.1v1.3H7.1v-1.3c0-8.9,2.4-15.8,7.1-20.5c4.6-4.6,11.4-6.9,20.2-6.9
						c17.5,0,26.8,8.3,26.8,24c0,9.3-3.9,16.3-10.6,19.4c8.4,2.8,12.9,10,12.9,21.2c0,7.7-1.9,14-5.8,18.7
						C52.5,94.8,44.1,98,32.7,98z M8.4,70.4c0.1,7.8,2.2,13.9,6.1,18.2c4.1,4.6,10.3,6.9,18.3,6.9c12.8,0,28.1-4.4,28.1-25.6
						c0-11.7-4.8-18.1-14.7-19.6l-1.1-0.2v-2.4l1-0.2c7.9-1.8,12.5-8.4,12.5-18.3c0-14.3-8.2-21.5-24.2-21.5
						c-8.1,0-14.2,2.1-18.4,6.2c-4,3.9-6.1,9.8-6.3,17.4h13.9C23.7,23.7,25.3,17,34,17c8.9,0,9.9,7.4,9.9,12.9
						c0,9.6-4.3,15.3-11.5,15.3h-4.6v9.2h4.7c11.6,0,12.9,9.4,12.9,16.4c0,5.4,0,15.5-11.2,15.5c-9.4,0-10.8-7.7-11.1-15.9H8.4z"/>
				</g>
			</g>
		</g>
	</g>
	<g>
		<path class="st2" d="M129.6,22.5h3.6l2.6,10.8h0l2.5-10.8h3.5v14.5h-2.2V25h0l-2.9,12.1h-2L131.9,25h0v12.1h-2.2V22.5z"/>
		<path class="st2" d="M144,29.8c0-5.2,1.5-7.5,4.8-7.5s4.8,2.4,4.8,7.5c0,5.2-1.5,7.5-4.8,7.5S144,35,144,29.8z M151.3,29.7
			c0-4.9-1.1-5.7-2.5-5.7c-1.4,0-2.5,0.9-2.5,5.7c0,5,1.1,5.9,2.5,5.9C150.2,35.6,151.3,34.7,151.3,29.7z"/>
		<path class="st2" d="M155.6,22.5h5.1c2,0,3.7,1,3.7,3.7c0,1.9-0.8,3.3-2.4,3.6v0c1.4,0.1,2.2,0.9,2.3,3c0,0.9,0,2.1,0.1,2.9
			c0,0.7,0.4,1.1,0.7,1.3h-2.6c-0.2-0.3-0.3-0.7-0.4-1.3c-0.1-0.9-0.1-1.7-0.1-2.7c0-1.6-0.5-2.3-2.1-2.3H158v6.3h-2.3V22.5z
			 M159.8,29c1.5,0,2.3-0.9,2.3-2.4c0-1.5-0.7-2.4-2.2-2.4h-2V29H159.8z"/>
		<path class="st2" d="M166.6,22.5h7.9v2h-5.5v4h5.2v2h-5.2v4.6h5.7v2h-8V22.5z"/>
		<path class="st2" d="M182.8,24.5h-3.5v-2h9.2v2h-3.4v12.6h-2.3V24.5z"/>
		<path class="st2" d="M189.9,22.5h2.3v5.8h4.3v-5.8h2.3v14.5h-2.3v-6.8h-4.3v6.8h-2.3V22.5z"/>
		<path class="st2" d="M203.9,22.5h3l3.8,14.5h-2.4l-0.9-3.6h-4.3l-0.9,3.6h-2.4L203.9,22.5z M207,31.7l-1.7-7.2h0l-1.7,7.2H207z"/>
		<path class="st2" d="M211.7,22.5h2.8l4.2,10.8h0V22.5h2.2v14.5h-2.8L214,26h0v11.1h-2.2V22.5z"/>
	</g>
</g>
</svg>
