<svg id="Layer_1" data-name="Layer 1" xmlns="http://www.w3.org/2000/svg" xmlns:xlink="http://www.w3.org/1999/xlink" viewBox="0 0 684 216"><defs><style>.cls-1{fill:none;}.cls-2{fill:#215fad;}.cls-3{fill:#ee9621;}.cls-4{fill:#231f20;}.cls-5{clip-path:url(#clip-path);}.cls-6{fill:#010101;}.cls-7{fill:#ed9623;}.cls-8{fill:#fff;}.cls-9{fill:#0bb0df;}.cls-10{fill:#774c1f;}.cls-11{fill:#eb3627;}.cls-12{fill:#808083;}.cls-13{fill:#9ec8eb;}.cls-14{fill:#ffdfae;}.cls-15{fill:#225fad;}</style><clipPath id="clip-path"><polygon class="cls-1" points="242.62 32.24 285.15 32.28 284.96 136.98 243.3 136.98 242.62 32.24"/></clipPath></defs><rect class="cls-1" width="684" height="216"/><path class="cls-2" d="M196.26,51.05h25.89c12.47,0,27.58,5.71,27.58,25.26,0,18.28-13.63,25.14-26.31,25.14H212.11v29.06H196.26ZM221,87.93c10.46,0,12.89-6.34,12.89-11.62s-3.7-11.73-12.79-11.73h-9V87.93Z"/><path class="cls-2" d="M47.75,51.08H98.47V65.24H63.6V83.31H97.52V97.46H63.6v18.91H98.47v14.16H47.75Z"/><path class="cls-2" d="M173,77.49h-.21l-21.23,53h-8.88l-21.24-52h-.21v52H106V51.08H124l23,54.09,23-54.09h18.07v79.45H173Z"/><path class="cls-2" d="M312.94,99.15h-9.29v31.38H287.8V51.08h29.69c16.69,0,26.2,10.46,26.2,23.67,0,8.34-4.55,19.23-14.8,22.29l18.5,33.49H328.47Zm1.27-12.89c10.88,0,13.63-5.81,13.63-10.88,0-5.7-2.75-10.78-14.16-10.78h-10V86.26Z"/><path class="cls-2" d="M349.81,51.08h50.72V65.24H365.66V83.31h33.92V97.46H365.66v18.91h34.87v14.16H349.81Z"/><path class="cls-2" d="M423.76,56.05H408.87v-5h35.27v5H429.25V100.2h-5.49Z"/><path class="cls-2" d="M469.81,50.17c14.44,0,25,9.74,25,25.47,0,14.83-10.78,25.48-25,25.48-14.43,0-24.95-9.73-24.95-25.48C444.86,60.82,455.64,50.17,469.81,50.17Zm0,5c-13.65,0-19.07,10.58-19.07,20.5,0,8.11,5.29,20.51,19.07,20.51s19.08-12.4,19.08-20.51C488.89,65.72,483.47,55.14,469.81,55.14Z"/><path class="cls-2" d="M516.26,51.09c19.53,0,25.41,12.8,25.41,24.29,0,12.28-7.64,24.82-23.32,24.82H501V51.09Zm-9.73,44.15h10.78c12.54,0,18.48-9.86,18.48-19.92,0-9.86-5.22-19.27-19.86-19.27h-9.4Z"/><path class="cls-2" d="M560.88,51.09h5.61L585,100.2h-6.21l-4.9-13.84H553.5l-4.9,13.84h-6.21ZM563.75,58h-.13l-8.29,23.38h16.72Z"/><path class="cls-2" d="M595.37,80.15,578.45,51.09h6.73l12.93,24.16,12.67-24.16h6.73L600.86,80.15v20h-5.49Z"/><path class="cls-2" d="M633.92,62a6.26,6.26,0,1,1,0-8.86,6,6,0,0,1,1.83,4.41A6.08,6.08,0,0,1,633.92,62Zm-8.24-8.25a5.18,5.18,0,0,0-1.56,3.81,5.26,5.26,0,0,0,1.55,3.84,5.37,5.37,0,0,0,7.63,0,5.44,5.44,0,0,0,0-7.65,5.36,5.36,0,0,0-7.62,0Zm3.69.35a5.06,5.06,0,0,1,1.87.25,1.69,1.69,0,0,1,1.07,1.74,1.51,1.51,0,0,1-.67,1.36,2.73,2.73,0,0,1-1,.33,1.69,1.69,0,0,1,1.18.67,2,2,0,0,1,.37,1.07V60c0,.16,0,.33,0,.51a2.12,2.12,0,0,0,.06.36l.05.08h-1.13a.14.14,0,0,1,0-.06.24.24,0,0,1,0-.08l0-.22v-.55a1.68,1.68,0,0,0-.64-1.57,3.07,3.07,0,0,0-1.36-.22h-1V61H627V54.12Zm1.31,1.08a3.21,3.21,0,0,0-1.47-.25h-1v2.49h1.1a3,3,0,0,0,1.15-.16,1,1,0,0,0,.71-1.07A1.06,1.06,0,0,0,630.68,55.2Z"/><path class="cls-3" d="M411.87,147.12H422v3.07h-6.67v3.92h6.51v3.07h-6.51v7.17h-3.45Z"/><path class="cls-3" d="M435.34,146.79c5.37,0,8.39,4.31,8.39,9s-3,8.94-8.39,8.94-8.39-4.31-8.39-8.94S430,146.79,435.34,146.79Zm0,3.08c-3.21,0-4.81,2.77-4.81,5.87s1.6,5.86,4.81,5.86,4.82-2.77,4.82-5.86S438.55,149.87,435.34,149.87Z"/><path class="cls-3" d="M454.41,157.55h-2v6.8H449V147.12h6.44c3.63,0,5.69,2.26,5.69,5.13a5,5,0,0,1-3.21,4.84l4,7.26h-4.1Zm.27-2.8c2.36,0,3-1.26,3-2.36s-.6-2.34-3.07-2.34h-2.18v4.7Z"/><path class="cls-3" d="M476.79,147.12h6.12c3.67,0,5.57,1.88,5.57,4.67a3.73,3.73,0,0,1-2.31,3.56v0a3.84,3.84,0,0,1,2.86,3.92c0,3.16-2.43,5-6,5h-6.26Zm5.52,7.08c1.63,0,2.73-.73,2.73-2.11s-1.05-2-2.43-2h-2.38v4.15Zm.19,7.22c2.18,0,3-1,3-2.18s-.69-2.25-2.69-2.25h-2.54v4.43Z"/><path class="cls-3" d="M505.46,147.12h3.44V157.2c0,5.39-3.42,7.48-7.18,7.48s-7.17-2.09-7.17-7.48V147.12H498v10.1c0,2.87,1.28,4.38,3.73,4.38s3.74-1.51,3.74-4.38Z"/><path class="cls-3" d="M523.51,151.65c0-1.19-1.14-1.92-2.52-1.92-1.71,0-2.75.75-2.75,1.9s1.15,1.77,2,2l3.16,1c2.29.73,3.92,2.06,3.92,4.72,0,2.11-1.51,5.28-6.28,5.28-6,0-6.53-3.88-6.53-5.41l3.43-.07c0,1.83,1.45,2.54,3.12,2.54,1.17,0,2.82-.57,2.82-1.9,0-.92-.39-1.4-2.08-2L518,156.47a4.67,4.67,0,0,1-3.24-4.31c0-2.2,1.52-5.37,6-5.37,5.32,0,6.16,3.53,6.16,4.8Z"/><path class="cls-3" d="M533.73,147.12h3.44v17.23h-3.44Z"/><path class="cls-3" d="M547.6,152.59h-.05v11.76h-3.3V147.12h3.69l7,11.57H555V147.12h3.3v17.23h-3.55Z"/><path class="cls-3" d="M565.17,147.12h11v3.07h-7.56v3.92H576v3.07h-7.36v4.1h7.56v3.07h-11Z"/><path class="cls-3" d="M590.61,151.65c0-1.19-1.15-1.92-2.52-1.92-1.72,0-2.76.75-2.76,1.9s1.15,1.77,2,2l3.16,1c2.3.73,3.92,2.06,3.92,4.72,0,2.11-1.51,5.28-6.28,5.28-6,0-6.53-3.88-6.53-5.41l3.44-.07c0,1.83,1.44,2.54,3.11,2.54,1.17,0,2.82-.57,2.82-1.9,0-.92-.38-1.4-2.08-2l-3.76-1.35a4.67,4.67,0,0,1-3.23-4.31c0-2.2,1.51-5.37,6-5.37,5.32,0,6.17,3.53,6.17,4.8Z"/><path class="cls-3" d="M608.07,151.65c0-1.19-1.15-1.92-2.52-1.92-1.72,0-2.76.75-2.76,1.9s1.15,1.77,2,2l3.16,1c2.3.73,3.93,2.06,3.93,4.72,0,2.11-1.52,5.28-6.29,5.28-6,0-6.53-3.88-6.53-5.41l3.44-.07c0,1.83,1.44,2.54,3.11,2.54,1.17,0,2.82-.57,2.82-1.9,0-.92-.38-1.4-2.08-2l-3.76-1.35a4.67,4.67,0,0,1-3.23-4.31c0-2.2,1.51-5.37,6-5.37,5.32,0,6.17,3.53,6.17,4.8Z"/><path class="cls-3" d="M400.44,154v3.35H47.82V154Z"/><path class="cls-4" d="M412.16,121.74c0-4.71,0-9.2,6.36-9.2,3.93,0,5.51,2.1,5.36,5.92H420.1c0-2.37-.43-3.26-1.58-3.26-2.17,0-2.45,2-2.45,6.54s.28,6.53,2.45,6.53c1.79,0,1.71-2.22,1.76-3.62h3.81c0,4.76-2,6.28-5.57,6.28C412.16,130.93,412.16,126.4,412.16,121.74Z"/><path class="cls-4" d="M424.88,130.64l5.1-17.8h5.09l5,17.8H436l-1-3.95h-5.26l-1.05,3.95Zm7.43-14.38h-.05L430.5,124h3.67Z"/><path class="cls-4" d="M445.41,130.64h-3.86v-17.8h7.13c2.63,0,4.31,1.62,4.31,4.66,0,2.27-.92,4-3.42,4.36v0c.84.1,3.35.3,3.35,3.5,0,1.14.07,4.49.43,5.23h-3.78a7.93,7.93,0,0,1-.41-3.45c0-2.12.21-3.92-2.75-3.92h-1Zm0-10.11h1.71c1.53,0,2-1.48,2-2.61,0-1.71-.74-2.35-2-2.35h-1.71Z"/><path class="cls-4" d="M455.85,112.84h6.95c3.52,0,4.9,2.07,4.9,5.32,0,2-.61,5.23-5.13,5.23h-2.86v7.25h-3.86Zm3.86,7.81h2.15a2.24,2.24,0,0,0,1.94-2.39c0-1.45-.41-2.69-2.15-2.69h-1.94Z"/><path class="cls-4" d="M469,130.64v-17.8h10.06v2.73h-6.21V120h5.72v2.74h-5.72v5.2h6.41v2.74Z"/><path class="cls-4" d="M493,112.84v3h-4.29v14.84h-3.86V115.8h-4.29v-3Z"/><path class="cls-4" d="M503,126.8a4.63,4.63,0,0,1-3.43,1.13c-2.82,0-4.39-1.28-4.39-3.6,0-1.57,1.14-2.58,2.42-3.38a4.79,4.79,0,0,1-1.36-3c0-1.31,1.61-2.3,3.71-2.3,1.17,0,3.11.53,3.11,2.32,0,1.54-1.1,2.33-2.09,3.19l1.92,2.43a7.14,7.14,0,0,0,.28-2.37h2.07a7.25,7.25,0,0,1-.83,4.06l1.85,2.44h-2.52Zm-4-4.39a2.67,2.67,0,0,0-1.24,1.92,1.7,1.7,0,0,0,1.87,1.83,2.32,2.32,0,0,0,1.88-.79Zm1.72-4.24a1,1,0,0,0-1-1,1,1,0,0,0-1.07.94,2.67,2.67,0,0,0,.9,1.71A2.1,2.1,0,0,0,500.71,118.17Z"/><path class="cls-4" d="M511.35,130.64v-17.8h9.58v2.73h-5.72v4.56h5.47v2.74h-5.47v7.77Z"/><path class="cls-4" d="M522.79,130.64v-17.8h3.86v14.84h5.77v3Z"/><path class="cls-4" d="M533.16,121.74c0-4.71,0-9.2,6.36-9.2s6.36,4.49,6.36,9.2,0,9.19-6.36,9.19S533.16,126.4,533.16,121.74Zm8.81,0c0-4.56-.28-6.54-2.45-6.54s-2.45,2-2.45,6.54.28,6.53,2.45,6.53S542,126.3,542,121.74Z"/><path class="cls-4" d="M547.74,121.74c0-4.71,0-9.2,6.36-9.2s6.36,4.49,6.36,9.2,0,9.19-6.36,9.19S547.74,126.4,547.74,121.74Zm8.81,0c0-4.56-.28-6.54-2.45-6.54s-2.45,2-2.45,6.54.28,6.53,2.45,6.53S556.55,126.3,556.55,121.74Z"/><path class="cls-4" d="M566.54,130.64h-3.86v-17.8h7.13c2.63,0,4.31,1.62,4.31,4.66,0,2.27-.92,4-3.42,4.36v0c.84.1,3.35.3,3.35,3.5,0,1.14.07,4.49.43,5.23H570.7a7.93,7.93,0,0,1-.41-3.45c0-2.12.21-3.92-2.76-3.92h-1Zm0-10.11h1.71c1.53,0,2-1.48,2-2.61,0-1.71-.75-2.35-2-2.35h-1.71Z"/><path class="cls-4" d="M576.45,130.64v-17.8h3.85v17.8Z"/><path class="cls-4" d="M583.06,130.64v-17.8h5.21l4.9,12.32h.05V112.84h3.61v17.8h-5.09l-5-13h-.05v13Z"/><path class="cls-4" d="M608,118.31c0-1.65-.25-3.11-2.29-3.11-2.41,0-2.41,3.13-2.41,6.59,0,5.57.57,6.55,2.76,6.55A6.2,6.2,0,0,0,608,128v-3.94h-2.1v-2.74h5.95v9a35.82,35.82,0,0,1-5.21.59c-6.48,0-7.22-2.59-7.22-9.34,0-4.49.23-9,6.54-9,3.78,0,6.12,2,5.89,5.77Z"/><g class="cls-5"><path class="cls-6" d="M249.74,85.5c-.28-.53.28-1.11.28-1.11a1.94,1.94,0,0,0,.16-.37.6.6,0,0,0,0-.46s1-.17,1.14-.46a13.4,13.4,0,0,1,.85-1.23,3.74,3.74,0,0,1,.4-.54,9.88,9.88,0,0,0-.37,2c-.14,1.37,0,2.11-.17,2.87s-.65,2.34-.65,2.34a5,5,0,0,0-.65-1.51A12,12,0,0,1,249.74,85.5Zm-5.31,1.91c.47.92,1.84,3.34,1.84,3.34l-.16.63,1.9,1.68.45-.24a2.36,2.36,0,0,1,.12.63,2.65,2.65,0,0,0,.52,1.15,3.31,3.31,0,0,0,.63.75.79.79,0,0,0-.29,1,2.57,2.57,0,0,0,.41.86s.17.58.63.64a1.89,1.89,0,0,0,.8-.06l.18-.23s.29.35.57.35a7.19,7.19,0,0,0,.75-.06s2.35,10.7,3,16.34.11,7.6-.06,8.64a6.29,6.29,0,0,0-.17,2.42,6.18,6.18,0,0,1,.34.69h-.46l-.34,2.4.63.36s-1.73.63-3,1.15-2.65,1.15-2.88,1.9a3.74,3.74,0,0,0-.11,1.5,9.6,9.6,0,0,0,6.21.52,50.51,50.51,0,0,0,7.25-2.19,5.51,5.51,0,0,0,.12-1.62c-.12-.46-.35-1.26-.35-1.26l.29-.13.12-1.66s-.46-.34-.35-.63a2.36,2.36,0,0,0,.23-1.55c-.11-.93.06-3.11.12-6.86s.47-10.87.47-10.87.11,13.06.06,14.67-.11,3.46-.11,3.46.34.52.29.81a6.28,6.28,0,0,1-.24.69l-.05,2a1.36,1.36,0,0,1,.11.75,3.43,3.43,0,0,1-.17.74l.17,1.45s5.76,2.06,9.9,2.06,4.14-.56,4.14-.56.12-.47.24-.87a1.73,1.73,0,0,0-1.22-2c-1.32-.58-5.52-1.85-5.52-1.85v-.23a.66.66,0,0,0,.35-.8,4.32,4.32,0,0,1,0-1.38l-.41-.17a24.79,24.79,0,0,0,.12-3.4,24.32,24.32,0,0,1-.12-5.93c.28-2.94.52-5.58,1-8.29s.47-2.07.47-2.07h11.63s.25-6.15.34-9.39.36-8.46.36-8.46a3.07,3.07,0,0,1-.17-1.08,5.33,5.33,0,0,0-.14-1.35l-4.2-.16a4.6,4.6,0,0,0-.4-3.33c-.93-1.73-1.21-2.59-1.79-3.11a16.79,16.79,0,0,1-2.42-3.4c-.63-1.2-1.26-2.7-1.43-3.1s-.29-1-.58-1.15a10.13,10.13,0,0,0-1.56-.29,8,8,0,0,1-1.49-.7,8.86,8.86,0,0,1-1.38-.92s1.67-.63,2-1.27,1-2.18,1.43-3.21,1-2.59,1-2.59l.58-1.33a15.27,15.27,0,0,1,.57-1.61,17,17,0,0,0,1.09-2.94,3.59,3.59,0,0,0,0-1.26,5.18,5.18,0,0,0,1.21-2.65,11,11,0,0,0-.58-3.17l-.51-.11a28.42,28.42,0,0,0-1-6.16A7.75,7.75,0,0,0,272,38.83s.17-1.2-2.13-2.18a15.25,15.25,0,0,0-9.09-1.21c-3.8.69-4.78,2.07-4.78,2.07a9.51,9.51,0,0,0-4.2,4.14c-1.33,2.82-2,4.67-1.5,7.09s.8,3.51.8,3.51-1.78.91-.46,3.79,2.13,3.91,2.88,3.8l.75-.11s.12,3.91,2,5.59a19.74,19.74,0,0,0,2.3,1.88,1.5,1.5,0,0,1-.46.87,3.52,3.52,0,0,0-.64.69l-.11.52a9.61,9.61,0,0,1-2.65,1.21c-1.49.4-2.93.75-2.93.75l-2,3.51s-3.52,2.81-4.31,5.75l-.82,2.94.35.46-.74.63A6.47,6.47,0,0,0,244.43,87.41Z"/><path class="cls-7" d="M258.34,53.65a11.16,11.16,0,0,1-.66-2.68,19.53,19.53,0,0,1,4.21-.7l3.78-.2a4.79,4.79,0,0,1,.31,3c-.35,1.82-1.19,2.84-3.6,3.18a3.81,3.81,0,0,1-4-2.63m8-3.66a13.12,13.12,0,0,1,2.58-.09,2.74,2.74,0,0,0-.22.54l-.15.63h-.65c-.37,0-1.34,0-1.34,0a2.47,2.47,0,0,0-.05-.62A1.14,1.14,0,0,0,266.33,50Zm2.75,1a10.27,10.27,0,0,1,.43-1.07,22.66,22.66,0,0,1,3.55,0c1.75.15,3.25.45,3.25.45a4.75,4.75,0,0,1,.29,3.25,3.34,3.34,0,0,1-3.46,2.4,3.52,3.52,0,0,1-2.6-.9,4,4,0,0,1-1.48-2A4.41,4.41,0,0,1,269.08,51Zm-16.14,1.31.33.32,4-1.13a18.72,18.72,0,0,0,.56,2.11,4.18,4.18,0,0,0,2.89,2.89c1.87.46,3.78.19,4.82-1s1-3.57,1-3.57a3.67,3.67,0,0,1,1.07-.21,3.39,3.39,0,0,1,.94.14s0,.62.08,1.15a2.79,2.79,0,0,0,.46,1.21,3.38,3.38,0,0,0,.93.62,1.8,1.8,0,0,1,.63.8,6.6,6.6,0,0,0,1.6.59,5.32,5.32,0,0,0,3.55-.8,4,4,0,0,0,1.44-2.79,11,11,0,0,0-.45-2.72,11.49,11.49,0,0,0-1.64-.27,34.14,34.14,0,0,0-3.95-.27c-2.26-.08-3.9.1-5.46.13s-3.43.2-5.34.32a17.8,17.8,0,0,0-3.14.43l-2.12,1C254.38,51.67,252.94,52.28,252.94,52.28Z"/><path class="cls-8" d="M276.28,51.05a3.86,3.86,0,0,1,.15,1.28,7.61,7.61,0,0,1-.21,1.35,2.27,2.27,0,0,1-.34-1.11,12.71,12.71,0,0,1,.4-1.52"/><path class="cls-8" d="M274.17,52.85l-.65-.14c-.23,0-.66-.06-.66-.06A1.36,1.36,0,0,0,273,52c-.06-.27-.17-.65-.17-.65s.94-.11,1.36,1.52"/><path class="cls-9" d="M271.5,51.18l.66,0s.31.13.35.68a.75.75,0,0,1-.29.75l-.43,0a1.29,1.29,0,0,0,.25-.74c0-.33-.54-.73-.54-.73"/><path class="cls-8" d="M271.38,51.69c0,.14.16.26.35.26s.36-.12.36-.26-.16-.26-.36-.26-.35.12-.35.26"/><path class="cls-8" d="M264.64,52.47a1.59,1.59,0,0,0-.47-.82,2.09,2.09,0,0,0-.69-.45.57.57,0,0,0-.38-.05,1.11,1.11,0,0,1,.27.7.9.9,0,0,1-.14.62,4.45,4.45,0,0,1,1.41,0"/><path class="cls-9" d="M261.73,51.26a.59.59,0,0,1,.41-.1.61.61,0,0,1,.6.42,1,1,0,0,1,.06.7,1.15,1.15,0,0,1-.13.29l-.47,0a1.22,1.22,0,0,0,.23-.62.8.8,0,0,0-.39-.64,1.8,1.8,0,0,0-.31-.08"/><path class="cls-8" d="M261.75,51.72a.29.29,0,0,0,.31.26.3.3,0,0,0,.32-.26.3.3,0,0,0-.32-.27.3.3,0,0,0-.31.27"/><path class="cls-10" d="M271.11,38.33s-.27-.91-2.1-1.57a12.28,12.28,0,0,0-4.55-1,17.9,17.9,0,0,0-4,.21,15.14,15.14,0,0,0-2.28.7,3.63,3.63,0,0,0-1.16.63c-.24.19-.59.52-.59.52a19.91,19.91,0,0,0,2.63.37c2.38.28,5.15.56,6.52.68s2.57.2,2.57.2a16.31,16.31,0,0,0-2.89-.84l-3.49-.66a18.73,18.73,0,0,1,3.37.15c1.76.26,3.16.43,3.86.57l1,.2a8.63,8.63,0,0,0-2.88-1.27c-1.75-.43-2.69-.63-2.69-.63a13.17,13.17,0,0,1,3.22.41A13.76,13.76,0,0,1,270.33,38a7.14,7.14,0,0,0,.78.31"/><path class="cls-10" d="M253.61,43.17A11.66,11.66,0,0,0,252,44.24a4,4,0,0,1,.3-.49,2.85,2.85,0,0,1,2.81-1.28Zm-3,5a24.26,24.26,0,0,0,.88,3.88,4,4,0,0,1,.72-.2,2.13,2.13,0,0,1,.6.07s2.25-.85,2.54-1a.47.47,0,0,0,0-.72c-.16-.1,0-.47.14-.74a1.8,1.8,0,0,0,.11-.58,5.38,5.38,0,0,1-1,.71,3.81,3.81,0,0,1-1.6.28,24.88,24.88,0,0,0,2.34-1.19c.33-.27.06-.88.06-.88a3.18,3.18,0,0,0,.21-1.3,4.62,4.62,0,0,0-.31-1.37,5.39,5.39,0,0,1-.93.72,2.31,2.31,0,0,1-1,.33s1.25-1,1.66-1.3.58-1,.8-1.53a5.16,5.16,0,0,0,.64-2.82,3.76,3.76,0,0,0-.52-2.28,4.39,4.39,0,0,0-2.07,1.2,14.92,14.92,0,0,0-2.48,3.89A8.38,8.38,0,0,0,250.62,48.2Z"/><path class="cls-10" d="M273.52,48.6a4.38,4.38,0,0,1,.89-.1l1,.08a.78.78,0,0,0-.25-.28c-.18-.15-.7-.48-.7-.48a1.33,1.33,0,0,0-.51.27,5.45,5.45,0,0,0-.42.51"/><path class="cls-10" d="M274.12,47.71a1.81,1.81,0,0,0-.66.4,5.15,5.15,0,0,0-.4.6s-.53.11-.79.14l-.25,0a1,1,0,0,1,.11-.46c.13-.23.36-.56.36-.56a2.25,2.25,0,0,0-.5.4,5.38,5.38,0,0,0-.38.7l-1.9.16a1.11,1.11,0,0,1-.23-.42,1.57,1.57,0,0,1,0-.52c.53,0,1.88-.52,2.92-.6a5.45,5.45,0,0,1,1.76.11"/><path class="cls-10" d="M265.85,48.36l0,.76-.49,0a1,1,0,0,0-.16-.36c-.1-.12-.33-.51-.33-.51l1,.07"/><path class="cls-10" d="M263.44,49.29a2.21,2.21,0,0,0-1.52-.52c-1,0-1.34,0-1.82,0a7.08,7.08,0,0,0-.92.16l-.14-.26a9.84,9.84,0,0,1,.93-.6c.29-.14.47-.3.74-.13s.87.45.87.45a.9.9,0,0,0-.26-.54,1.14,1.14,0,0,0-.29-.2l1.61.11a12.13,12.13,0,0,1,1.73.31c.42.15.63.73.69,1.05l-1.62.12"/><path class="cls-10" d="M255.05,52.33a1.77,1.77,0,0,0,.21.59c.17.29.31.5.31.5a3.33,3.33,0,0,1-.93.1c-.31,0-.51-.07-.61-.23a4,4,0,0,1-.25-.55,1.21,1.21,0,0,1,.62-.23,2.28,2.28,0,0,0,.65-.18"/><path class="cls-10" d="M261.62,61.25s-.05.24.63.32h0s.45-.27.92-.52a3.31,3.31,0,0,0,.67-.44,3.75,3.75,0,0,1-.74.74c-.31.17-.79.52-.79.52s.16.09.67,0a2,2,0,0,0,.85-.46,7,7,0,0,0,.89-.8c.21-.24.44-.53.44-.53a2.7,2.7,0,0,1-.68,1.08,3.42,3.42,0,0,1-1,.79,2.24,2.24,0,0,0,1.1,0,2.45,2.45,0,0,0,1.13-.86,11.93,11.93,0,0,0,.79-1.18,3.25,3.25,0,0,1-.63,1.4,2.83,2.83,0,0,1-1,.82,2.07,2.07,0,0,0,1.35-.23,2.27,2.27,0,0,0,1-1,5.71,5.71,0,0,0,.43-1,2.66,2.66,0,0,1-.2,1.19,3.13,3.13,0,0,1-.6.7,1.51,1.51,0,0,0,1-.13,2.32,2.32,0,0,0,.57-.47,2.66,2.66,0,0,0,.58.47,3.23,3.23,0,0,0,.9.39l.29.06a2.89,2.89,0,0,1-.76-.88,1.4,1.4,0,0,1-.17-.74,1,1,0,0,1,.06-.27s.19,1,.6,1.28.59.59.88.65a3.07,3.07,0,0,0,.47,0,1.1,1.1,0,0,1-.38-.48,1.5,1.5,0,0,1-.14-.41,2.54,2.54,0,0,0,.82.74c.46.19.53.25.82.21l.29,0a1.56,1.56,0,0,1-.67-.56.56.56,0,0,1,0-.57s.09.68.52.87.3.21.62.19l.31,0a1.45,1.45,0,0,1-.72-.46c-.4-.4-.14-.69-.14-.69a1.65,1.65,0,0,0,.52.75c.58.34.5.32.88,0a12,12,0,0,0-.84-1.08,11.49,11.49,0,0,0-1.72-1.42,10.51,10.51,0,0,0-1-.67,2.14,2.14,0,0,1-1.5.78,1.94,1.94,0,0,1-1.21-.49l-.16.14a1,1,0,0,1-.31-.45c-.1-.29-.65-.08-1.77.22a13,13,0,0,0-2.58,1c-1,.45-.88.79-1.06,1A2.44,2.44,0,0,0,261.62,61.25Z"/><path class="cls-8" d="M270,62.51a2.25,2.25,0,0,1-1.07-.27,2,2,0,0,1-.58-.43s-.8.57-1.25.47a1.89,1.89,0,0,1-.54-.17,2,2,0,0,1-.86.32,6.41,6.41,0,0,1-.82,0,8.5,8.5,0,0,0,3.08.66c1.85.08,1.93-.18,2-.27a1,1,0,0,0,.05-.33"/><path class="cls-11" d="M268.13,64.38a2.78,2.78,0,0,0-1.09-.76,3.67,3.67,0,0,0-1.43-.33,4.8,4.8,0,0,0-.65,0s-.11.54,1.2.86a6.71,6.71,0,0,0,2,.23"/><path class="cls-8" d="M263.55,77.17a.34.34,0,1,0,.33-.33.34.34,0,0,0-.33.33"/><path class="cls-8" d="M263.67,81.42a.34.34,0,1,0,.67,0,.34.34,0,0,0-.67,0"/><path class="cls-8" d="M263.76,85.17a.33.33,0,1,0,.33-.34.33.33,0,0,0-.33.34"/><path class="cls-12" d="M277.45,84.6h-1.38l.05-1.48a4.52,4.52,0,0,1,1,.07c.31.08.36.25.4.57a4.45,4.45,0,0,1-.05.84"/><path class="cls-12" d="M269.68,83.16a10.31,10.31,0,0,1-.22,1l-.07.15s-1.34.07-1.65.07-.45-.06-.51.18-.07.35-.07.35l-1.19,0s0-.44,0-.82,0-.86.63-.87l3,0"/><path class="cls-8" d="M269.39,83.66H267c-.41,0-.67,0-.67-.18s.35-.17.67-.17h2.66l-.07.34h-.22"/><path class="cls-8" d="M276.12,83.35h.76c.33,0,.32.12.32.2s-.1.15-.37.17-.72,0-.72,0v-.36"/><path class="cls-12" d="M267.83,85.64s.18-.51-.28-.47-1.93.06-1.93.06v.39l2.21,0"/><path class="cls-12" d="M278.1,85.55s.15-.47-.21-.47-1.47,0-1.6,0-.33,0-.35.17,0,.27,0,.27l2.18,0"/><path class="cls-12" d="M284.41,86.16a2,2,0,0,1,0,.87,1.42,1.42,0,0,0,0,.67l-22.64.14-.22-1.62,21.21,0"/><polyline class="cls-12" points="261.27 86.72 261.43 88.83 260.76 103.55 260.38 102.98 261.27 86.72"/><polyline class="cls-12" points="260.48 92.33 260.46 93.64 259.8 93.66 259.91 92.36 260.48 92.33"/><polyline class="cls-12" points="259.18 92.39 259.1 93.69 256.62 93.58 256.77 92.34 259.18 92.39"/><polyline class="cls-12" points="256.05 92.27 255.93 93.51 255.27 93.53 253.86 92.2 256.05 92.27"/><path class="cls-12" d="M256.89,93.84a7.92,7.92,0,0,1-1.8,2.64,2.86,2.86,0,0,0,1.36-1.15,2.16,2.16,0,0,0,.44-1.49"/><path class="cls-8" d="M284.65,88.13s0,4.73-.24,8.89-.39,8.41-.39,8.41l-22.77-.06s.27-9.57.4-12.72.16-4.46.16-4.46l20.65-.07"/><path class="cls-12" d="M271.46,128.06a26.9,26.9,0,0,1-3.37.44,18,18,0,0,1-2.66-.15s.51.69,2.2.54a21.27,21.27,0,0,0,3.83-.83"/><path class="cls-12" d="M262.3,129a18.62,18.62,0,0,1-3.55.08c-1.49-.16-3.11-.46-3.11-.46a13.05,13.05,0,0,0,3.32.92,15.44,15.44,0,0,0,3.34-.54"/><path class="cls-13" d="M251,89a1.18,1.18,0,0,1,.33.58,1,1,0,0,1,.07.5,5.17,5.17,0,0,0-1.47.73,6.34,6.34,0,0,0-1.2,1.08l-.58.68-1.26-1s1.34-1,2.24-1.56,1.3-.79,1.48-.86A2.59,2.59,0,0,1,251,89"/><path class="cls-13" d="M264.76,80c-.1-1.88-.26-3.07-.26-3.07s-1.13-1.48-1.58-2.26a18.94,18.94,0,0,0-1.66-2.88,6.33,6.33,0,0,1-1.52-2.34,12.77,12.77,0,0,0-.68-1.81,2.13,2.13,0,0,1-.58.9,3.84,3.84,0,0,1-.59.5,8.7,8.7,0,0,1-.49,2.34,8.66,8.66,0,0,0-.72,2.3,3.86,3.86,0,0,0,.07.64,7.21,7.21,0,0,0,1.94-1,5.34,5.34,0,0,0,1.36-1.4c.11-.26.21-.46.38-.26A17.06,17.06,0,0,1,261.5,73c.33.53.82.95.84,1.32s0,.66,0,.66-.37-.7-.83-1.38a9.89,9.89,0,0,0-1-1.27c-.15-.13-.06-.37-.58.3a3.92,3.92,0,0,1-1.82,1.48,9.41,9.41,0,0,0-1.55.64l-.36.16a3,3,0,0,1,0-1.35c.2-.76.51-1.54.65-2a5.47,5.47,0,0,0,.31-1.27l0-.32a5.58,5.58,0,0,1-2.42,1.11c-1.49.3-2.64.33-2.87.83s-1.23,2.45-1.54,2.88a7.56,7.56,0,0,1-1.25,1.34,11.45,11.45,0,0,0-2.52,2.89,14.29,14.29,0,0,0-1.11,3.14c-.31.89-.44,1.22-.44,1.22l.42.55-.8.84a4.4,4.4,0,0,0,0,2c.3.84,1.76,3.46,1.76,3.46l.49.19.12.41s.64-.46,1.9-1.22,1.89-1.12,1.89-1.12a1.56,1.56,0,0,0-.29-1.2,8,8,0,0,1-1.2-2c-.14-.47-.12-.66.13-.89s.54-.62.3-.77a2.27,2.27,0,0,0-.38-.23l-1.63.83-1.13-.2,1.17-.23,1.71-.84a1.86,1.86,0,0,0,1.19,0,1.76,1.76,0,0,0,1-1.17,1.1,1.1,0,0,1,.54-.71,1.59,1.59,0,0,0,.48-1.35,4.24,4.24,0,0,0-.26-1.19c-.12-.35-.2-.65-.2-.65a3.75,3.75,0,0,1,.91,2.34c-.09,1.19-.29,1.16-.29,1.16a23.43,23.43,0,0,1-.17,3.41c-.24,1.81-.75,3.23-.71,4.11a3.29,3.29,0,0,0,.77,2,2.65,2.65,0,0,0,1.77.76c.74.06,6.1,0,6.1,0s-.06-1.78.06-3.2.29-2.82.29-2.82l2.07,0,0-7.07.29,7,1.4,0S264.85,81.84,264.76,80Zm-1.44-2.81a.55.55,0,0,1,.55-.54.55.55,0,0,1,0,1.09A.55.55,0,0,1,263.32,77.17Zm.66,3.71a.53.53,0,0,1,.53.52.53.53,0,1,1-.53-.52Zm.09,4.81a.54.54,0,1,1,0-1.08.54.54,0,1,1,0,1.08Z"/><path class="cls-13" d="M265.08,85.77s0-2.65-.08-4.73-.18-4.27-.18-4.27l-.64-1s1.41-2.17,2.15-3.16,1.31-1.47,1.34-1.86.05-.71.05-.71.42,0,.79-.08a6.82,6.82,0,0,0,.74-.17,16,16,0,0,0,.4,1.81c.25.89.6,1.79.68,2.06a3.7,3.7,0,0,1,.11.37,5.54,5.54,0,0,1-1.6-1.09,4.83,4.83,0,0,1-.95-1.24c-.09-.15-.18-.32-.35,0s-.73,1-1,1.5-.74,1.29-.74,1.29a12.44,12.44,0,0,0,1.29-1.17,7.91,7.91,0,0,1,.81-.82,7,7,0,0,0,1.26,1.18A13.34,13.34,0,0,0,271,74.71a7.51,7.51,0,0,0-.36-1.58c-.26-.63-.64-1.38-.73-1.67a2.14,2.14,0,0,1-.13-.67,2.25,2.25,0,0,1,0-.4,4.48,4.48,0,0,0,1.43,1,12.35,12.35,0,0,0,1.93.58,1.13,1.13,0,0,1,1,.89,29,29,0,0,0,1.5,3.34,9,9,0,0,0,1.54,2.45,8.24,8.24,0,0,1,1.61,2c.37.7,1,2,1.17,2.26a3,3,0,0,1,.36,1.29l-.07,1.49-1.73-.11s-.06-.34-.12-.56-.09-.3-.23-.35a.54.54,0,0,1-.17-.08s0-1.13-.17-1.34a2.17,2.17,0,0,0-.68-.42,1,1,0,0,1,.52-.12,1.73,1.73,0,0,1,.68.19,3.64,3.64,0,0,0,.47.11s-.7-.82-1.08-.7a3.83,3.83,0,0,1-1,.16,5.57,5.57,0,0,0-.66,0c-.58.06-.5-.15-.75-.39a3.13,3.13,0,0,1-.78-1.57c-.06-.63,0-1-.11-1.15s-.26.11-.32-.71a12.31,12.31,0,0,0-.24-1.56,10.38,10.38,0,0,0-.06,1.89c.09.77.32,1.3.32,1.62a4.77,4.77,0,0,0,.15.88s-.47.22-.85-.38c-.78-1.23-1.42-.8-2-.7-.41.08-.66-.33-1-.34-1.52-.06-2.08,2.77-2.08,2.77l-1.61,0s-1.16-.15-1.16.78,0,1.23,0,1.23a.42.42,0,0,0-.24.35c0,.25,0,.37,0,.37l-.1,0,0,.15-.12-.07"/><path class="cls-14" d="M276,49.49a24.49,24.49,0,0,0-.71-4.62A9.81,9.81,0,0,0,273.49,41a25.15,25.15,0,0,0-1.91-2,10.83,10.83,0,0,1-1.52-.14,15.6,15.6,0,0,1-1.74-.35c-.46-.12-1.6-.25-1.6-.25s1.43.39,2,.65a4.77,4.77,0,0,1,1.11.63s-3.13-.23-4.56-.35-2.89,0-4.39-.25a38.82,38.82,0,0,1-4.52-1.15A7.81,7.81,0,0,1,256.7,39a14.17,14.17,0,0,1,0,3,5.71,5.71,0,0,1-.58,1.91,2.26,2.26,0,0,0-.27,1.64,3.73,3.73,0,0,1,.14,1.74l-.14.45,0,.88s.29,0,.23.42-.27.68-.25.84.22.14.2.31-.08.53-.08.53a6,6,0,0,0,.79-.4,2.4,2.4,0,0,0,.57-.48s1.37-.2,2.51-.3,2.54-.15,2.54-.15a9.57,9.57,0,0,0-1.72-.21,14.32,14.32,0,0,0-1.64.12l-.32-.47a7.82,7.82,0,0,1,.83-.68,2.86,2.86,0,0,1,2-.6,9.9,9.9,0,0,1,2.28.25,13.72,13.72,0,0,0,1.61.31,5.7,5.7,0,0,0,.85.09v.92s.23,0,1.38,0a13,13,0,0,1,1.72,0,1.17,1.17,0,0,1-.2-.49c0-.18,0-.67,0-.67s.82-.06,1.35-.15A11.22,11.22,0,0,1,273,47.3a3.18,3.18,0,0,1,1.95.51c.43.35.54.51.6.66s.28.4-.13.37-.9,0-1.09,0-1.08.27-1.08.27.67.07,1.27.16l1.48.24"/><path class="cls-14" d="M268.48,50.09a1.33,1.33,0,0,0-.18.35.91.91,0,0,0,0,.35l-1.44,0a.66.66,0,0,0,0-.31,1.75,1.75,0,0,1,0-.35s.6-.06.94-.06l.76,0"/><path class="cls-14" d="M269.86,52.9s0-.57,0-.7a1.82,1.82,0,0,1,.76-1.13,2.57,2.57,0,0,1,1.38-.35,2.29,2.29,0,0,1,1.6.46c.91.53,1,2,1,2l-.55-.11a7,7,0,0,0-1.87-.22,16.71,16.71,0,0,0-2.26,0m.17,1.4a4.07,4.07,0,0,0,3.38,1.4,3.23,3.23,0,0,0,2.35-1.32l-.06-.25a2.23,2.23,0,0,0-.2-.56,2.65,2.65,0,0,1-.27-1.18,6.13,6.13,0,0,1,.3-1.93L275,50.4c-.37,0-1.29-.18-1.29-.18a2.7,2.7,0,0,0,.47.41,1.12,1.12,0,0,1,.37.65,3.34,3.34,0,0,0-2.51-1,3,3,0,0,0-1.95.73l0-.22a.75.75,0,0,1,.3-.44,1.18,1.18,0,0,1,.48-.24l-.66,0c-.66,0-.82.8-.89,1.62A3.77,3.77,0,0,0,270,54.3Z"/><path class="cls-14" d="M260.33,52.67a1.72,1.72,0,0,1,.53-1.42,2.44,2.44,0,0,1,1.59-.53,2.71,2.71,0,0,1,1.74.46,2.93,2.93,0,0,1,.91,1.58s-1,0-2.36.08a13.76,13.76,0,0,0-2.37.31l0-.48m-2.22-1.45.23,1.54A3.76,3.76,0,0,0,261.79,56a3.33,3.33,0,0,0,3.77-2.17,5.19,5.19,0,0,0-.1-3.46l-1.31,0s.15.13.35.33a.81.81,0,0,1,.14.58s-.34-.37-.51-.54a1.91,1.91,0,0,0-.68-.3s-.47,0-1.06.06l-1.48.16a3.55,3.55,0,0,0-.37.33,5.8,5.8,0,0,0-.6.74s0-.21.08-.51a1.33,1.33,0,0,1,.17-.45s-.37,0-.87.14S258.11,51.22,258.11,51.22Z"/><path class="cls-14" d="M268.26,52.08a4.08,4.08,0,0,0-.68,0l-.76.06a10.46,10.46,0,0,1-.37,2.24,8.62,8.62,0,0,1-.84,1.48,2,2,0,0,1,.64-.25,1.08,1.08,0,0,1,.52.13,1.43,1.43,0,0,0-.71.38c-.35.33-.71.85-.41,1.31l.21.32a2.31,2.31,0,0,1,.76-.11c.18,0,.42-.06,1,.81a1.56,1.56,0,0,0,2.22.26,2.13,2.13,0,0,0,.72-1.93,3,3,0,0,0-.94-1.58c-.31-.29-1-.84-1-.84l.14-.06a4.74,4.74,0,0,1-.41-.93c-.08-.36-.14-1.25-.14-1.25"/><path class="cls-14" d="M270.66,58.4a7.08,7.08,0,0,1,1.64,1.25c.88.89,1,.82,1.26,1.16l.44.57s.45-1.17.76-1.93.62-1.56.79-2.08a3.9,3.9,0,0,0,.28-1.13,2.11,2.11,0,0,0,0-.42,4.92,4.92,0,0,1-2.33.78A4.15,4.15,0,0,1,270.8,56a2.39,2.39,0,0,1,.19,1.17C270.89,57.65,270.66,58.4,270.66,58.4Z"/><path class="cls-14" d="M251.36,55.63a2,2,0,0,1-.12-1.56c.34-.76.86-.88,1.27-.68a1.75,1.75,0,0,1,1,1.46c.14.88.28,1.15.05,1.4s-.59.49-.26.84.59.51.39.7-.52.37-.62.1-.31-.7-.19-1a4.92,4.92,0,0,0,.29-.94,4.22,4.22,0,0,0,0-.87c-.06-.26-.17-.43-.37-.2s-.59.66-.5,1,.43,1.38.05.88a1.5,1.5,0,0,1-.36-1.32,2.41,2.41,0,0,1,.48-.75c.19-.22.52-.41.34-.57s-.54-.45-.82-.18a1.41,1.41,0,0,0-.52.85c-.06.39-.1.86-.1.86m-.64-.26a8.38,8.38,0,0,0,1.89,3.31c.56.48.74.77,1.3.59s.65-.37.65-.37.17,3.21,1.3,4.8,2.48,3.12,6.73,5a10,10,0,0,0,7.93.12,3.19,3.19,0,0,0,1.16-1.45c.27-.76.54-1.54.81-2.32a16.64,16.64,0,0,1,.69-1.81c.19-.39.29-.58.29-.58a1.82,1.82,0,0,1-.82.19,3.32,3.32,0,0,1-.72-.15.52.52,0,0,0-.56-.06,1.1,1.1,0,0,1-.67.1l-.35-.08s.08,1.36-.88,1.85-3.18.09-3.63-.08a3.46,3.46,0,0,1-1.42-.94l-.56-1.08a8,8,0,0,1-1.51,0,1.86,1.86,0,0,1-.72-.39s0-.1-.14-.21-.31-.24-.31-.24a3.07,3.07,0,0,1,1.09-1.73c.75-.41,4-1.58,4-1.58s-.88-.25-1-.49a3.23,3.23,0,0,1-.12-.54,3.85,3.85,0,0,0-.64.6,5.64,5.64,0,0,1-.7.68,6.4,6.4,0,0,1,.39-.91l.35-.59c.08-.13.39-.58.39-.58a5.24,5.24,0,0,1-2.69.66,5,5,0,0,1-4.15-2.16,9.68,9.68,0,0,1-1-3l-1.54.43a1.23,1.23,0,0,0,.12.59c.13.24.45.78.45.78a4,4,0,0,1-1.46.35,1.17,1.17,0,0,1-.94-.49c-.17-.23-.8-1.44-1.79-1.13A2.12,2.12,0,0,0,250.72,55.37Z"/><path class="cls-14" d="M267.13,70a9.51,9.51,0,0,1-3.16-.28,11,11,0,0,1-3-1L259.74,68a5.37,5.37,0,0,0,.69,1.9c.58,1,1.27,1.84,2,3A24,24,0,0,0,263.8,75l.33.39s.33-.6.88-1.42.82-1.4,1.18-2a4.37,4.37,0,0,0,.71-1.09c.09-.35.23-1,.23-1"/><path class="cls-14" d="M251.68,90.48l3.18,3.17s0,1.67,0,2.28-.33.83-.54.83a.41.41,0,0,1-.33-.18l0-2.14a4.1,4.1,0,0,0-.29,1.38c0,.69-.07,1.34-.39,1.51s-.4,0-.43-.39a7.64,7.64,0,0,1,0-1c0-.22.08-1.12.08-1.12a7.66,7.66,0,0,0-.37,1.26c0,.4,0,1.45-.54,1.45s-.58-.33-.58-.33.15-.65.18-1,.07-1,.07-1a7.13,7.13,0,0,0-.35,1.33c-.11.69-.15,1.09-.62,1.09s-.47-.3-.47-.3l0-1.4.11-.29.22,0-.19-.47-.18.11a2.68,2.68,0,0,1-1.08-1.16,8.92,8.92,0,0,1-.36-1.73,4.08,4.08,0,0,1,1.26-1.23,7.47,7.47,0,0,1,1.59-.72"/><path class="cls-14" d="M250,96.9l.07-1.22s-.47-.07-.43.28a3,3,0,0,0,.36.94"/><path class="cls-14" d="M275.28,85.49a3.05,3.05,0,0,0,.46-1.42c0-.73-.17-1-.32-1.07s-.49-.24-.54-.46-.13-.71-.69-.76-.8-.07-1-.41-.4-1-1.1-.61-1.07.06-1.15,0a1,1,0,0,0-1.16,0,3.71,3.71,0,0,0-.9,1.45c-.22.59-.24.69-.24.69a3.82,3.82,0,0,0,.7,0l.26,0a1.84,1.84,0,0,1,.13-.51,3.35,3.35,0,0,0,.17-.42,2.92,2.92,0,0,1,.05,1.33,3.72,3.72,0,0,1-.3,1.31,1.29,1.29,0,0,0-.57.13,3.18,3.18,0,0,1-.36.22l.24.69h1.61a3.19,3.19,0,0,0,.69-1.26,13.46,13.46,0,0,0,.32-1.31c0-.26.1-.95.1-.95a5.29,5.29,0,0,1,.11,1.62,7.55,7.55,0,0,1-.36,1.81l1.05,0a9.65,9.65,0,0,0,.41-1.24c.07-.39.19-1,.25-1.24l.05-.23a2,2,0,0,1,.05,1.16A3,3,0,0,1,273,85.2a.72.72,0,0,0-.14.31l1,.06a6.52,6.52,0,0,0,.49-1c.13-.41.4-1.06.4-1.06a1.44,1.44,0,0,1,0,.9,5,5,0,0,1-.44,1.09l.95,0"/></g><path class="cls-15" d="M262.31,90.78h2.93v.83h-2v1h2v.82h-2v1.09h2v.81h-2.93Z"/><path class="cls-15" d="M269.74,92.3h0l-1.23,3.08H268l-1.22-3h0v3h-.88v-4.6h1l1.33,3.13,1.34-3.13h1v4.6h-.88Z"/><path class="cls-15" d="M271.45,90.78H273a1.42,1.42,0,0,1,1.59,1.47A1.38,1.38,0,0,1,273,93.69h-.66v1.69h-.92Zm1.43,2.14c.61,0,.75-.36.75-.67a.68.68,0,0,0-.75-.69h-.51v1.36Z"/><path class="cls-15" d="M275.06,90.78H276v4.6h-.92Z"/><path class="cls-15" d="M278.33,93.57h-.53v1.81h-.91v-4.6h1.7a1.38,1.38,0,0,1,1.53,1.38,1.32,1.32,0,0,1-.86,1.29l1.07,1.93h-1.09Zm.07-.75c.65,0,.8-.33.8-.62s-.15-.64-.82-.64h-.58v1.26Z"/><path class="cls-15" d="M280.78,90.78h2.93v.83h-2v1h2v.82h-2v1.09h2v.81h-2.93Z"/><path class="cls-15" d="M263.71,97.8h-1.39v-.47h3.3v.47h-1.39v4.14h-.52Z"/><path class="cls-15" d="M264.47,102.18h-1V98.05h-1.39v-1h3.79v1h-1.39Zm-.52-.49h0l0-4.11Z"/><path class="cls-15" d="M268.5,97.25a2.23,2.23,0,0,1,2.33,2.38A2.29,2.29,0,0,1,268.5,102a2.25,2.25,0,0,1-2.35-2.39A2.3,2.3,0,0,1,268.5,97.25Zm0,.47a1.75,1.75,0,0,0-1.79,1.91,1.79,1.79,0,1,0,3.57,0A1.75,1.75,0,0,0,268.5,97.72Z"/><path class="cls-15" d="M268.5,102.27a2.5,2.5,0,0,1-2.59-2.64A2.55,2.55,0,0,1,268.5,97a2.49,2.49,0,0,1,2.57,2.63A2.54,2.54,0,0,1,268.5,102.27ZM267,98.06a2.16,2.16,0,0,0-.63,1.57,2,2,0,0,0,1.34,2,2.2,2.2,0,0,1-1.27-2A2.33,2.33,0,0,1,267,98.06Zm2.72-.2a2.24,2.24,0,0,1,.78,1.77,2.27,2.27,0,0,1-1,1.89,2.26,2.26,0,0,0,.22-3.66Zm-1.25.1A1.5,1.5,0,0,0,267,99.63a1.55,1.55,0,1,0,3.08,0A1.52,1.52,0,0,0,268.5,98Z"/><path class="cls-15" d="M273.29,97.33a2.14,2.14,0,0,1,2.39,2.28,2.18,2.18,0,0,1-2.19,2.33h-1.62V97.33Zm-.9,4.14h1a1.72,1.72,0,0,0,1.73-1.87,1.68,1.68,0,0,0-1.87-1.8h-.87Z"/><path class="cls-15" d="M273.49,102.18h-1.87V97.09h1.67a2.38,2.38,0,0,1,2.63,2.52A2.42,2.42,0,0,1,273.49,102.18Zm-1.38-.49h0l0-4.11Zm2-4a1.9,1.9,0,0,1,1.26,1.91,2,2,0,0,1-1.38,2,2,2,0,0,0,1.43-2A1.86,1.86,0,0,0,274.12,97.69Zm-1.49,3.53h.77a1.47,1.47,0,0,0,1.49-1.62,1.45,1.45,0,0,0-1.63-1.55h-.63Z"/><path class="cls-15" d="M277.93,97.33h.52l1.74,4.61h-.58l-.46-1.3h-1.92l-.46,1.3h-.57Zm.26.66h0l-.77,2.18H279Z"/><path class="cls-15" d="M280.54,102.18h-1.1l-.46-1.29H277.4l-.46,1.29h-1.1l1.92-5.09h.86Zm-.76-.49h.05l-1.07-2.85Zm-3.23,0h.05l.91-2.56Zm1.21-1.77h.86l-.43-1.21Zm.28-2.17h.3l-.06-.17h-.18Z"/><path class="cls-15" d="M281.61,100.06,280,97.33h.63l1.22,2.26,1.18-2.26h.64l-1.58,2.73v1.88h-.51Z"/><path class="cls-15" d="M282.37,102.18h-1v-2.06l-1.77-3h1.21l1.07,2,1-2h1.22l-1.76,3Zm-.51-.49h0l0-1.63Zm-1.4-4.11.83,1.43-.78-1.43Zm2.75,0-.59,1.12.65-1.12Z"/></svg>